<?xml version="1.0" encoding="UTF-8"?><svg id="Calque_2" xmlns="http://www.w3.org/2000/svg" viewBox="0 0 988.01 988.01"><defs><style>.cls-1{fill:#fff;}.cls-2{fill:#898b7b;}.cls-3{fill:#734f41;}.cls-4{fill:#5b8a30;}.cls-5{fill:#e4e4da;}</style></defs><g id="Layer_1"><g><g><g><g><path class="cls-4" d="M802.2,173.85c-58.95-26.14-107.39,3.52-107.39,3.52,12.59-14.29,23.51-17.96,23.51-17.96-36.11,2.64-53.75,20.46-53.75,20.46,8.89-14.1,20.44-23.61,20.44-23.61-39.65,14.64-66.92,52.78-66.92,52.78,5.98-15.33,21.54-32.28,21.54-32.28-36.79,12.36-62.52,56.38-62.52,56.38,11.38-28.72,24.72-41.83,24.72-41.83-33.61,17.62-48.53,65.75-48.53,65.75,4.58-31.59,18.6-47.02,18.6-47.02-33.13,29.58-36.78,80.28-36.78,80.28-3.99-32.15,12.14-59.75,12.14-59.75-31.12,41.31-28.63,87.2-28.63,87.2-5.23-14.39-.72-33.39-.72-33.39-24.3,42.87-13.13,97.64-13.13,97.64-6.48-10.13-9.14-22.13-9.14-22.13-5.83,40.3,5.22,71.3,10.97,84.05,39.16-170.03,131.78-219.82,131.78-219.82-65.82,50.29-114.39,178.94-120.96,216.43,33.18-39.64,77.23-60.72,77.23-60.72-23.02-2.98-31.17,.31-33.69,1.96,20.54-17.07,53.1-29.48,53.1-29.48-22.35-2.01-47.03,6.31-47.03,6.31,27.72-23.59,74.91-41.58,74.91-41.58-24.37-5.04-44.11,.14-44.11,.14,28.15-23.84,77.03-30.24,77.03-30.24-11.82-1.93-46.94-7.58-46.94-7.58,17.68,1.79,66.48-21.63,66.48-21.63-21.97,1.63-39.45-7.04-39.45-7.04,30.83,1.67,72.54-19.94,72.54-19.94-27.99,4.75-44.67-6.63-44.67-6.63,25.5,2.47,65.37-12.95,65.37-12.95-20.98,.74-40.08-8.61-40.08-8.61,20.02-9.85,67.82-1.47,67.82-1.47-16.41-14.75-39.6-18.86-39.6-18.86,18.52-10.92,65.85-8.39,65.85-8.39Z"/><path class="cls-4" d="M950.64,504.88c-34.1-79.97-96.74-100.77-96.74-100.77,20.73-.38,32.81,6.95,32.81,6.95-33.51-32.6-61.07-34-61.07-34,17.36-3.79,33.94-.98,33.94-.98-44.75-25.48-94.53-18.34-94.53-18.34,15.63-7.69,40.78-7.53,40.78-7.53-40.7-24.72-93.1-10.92-93.1-10.92,29.45-14.23,50.04-12.85,50.04-12.85-41.46-17.02-87.15,10.84-87.15,10.84,25.41-23.33,48.17-23.32,48.17-23.32-49.13-6.05-86.66,34.97-86.66,34.97,18.26-32.1,51.12-40.75,51.12-40.75-55.31,6.2-84.18,48.93-84.18,48.93,5.15-17.7,21.97-30.03,21.97-30.03-50.38,14.17-77.64,73.09-77.64,73.09,1.16-15.17,6.96-28.28,6.96-28.28-32.41,29.77-43.69,67.69-47.27,84.46,149.52-111.53,264.61-65.7,264.61-65.7-91.88-19.47-221.65,46.61-252.8,73.19,55.99-2.74,108.97,21.34,108.97,21.34-18.21-24.88-27.59-29.87-30.93-30.86,29.6,4.86,66.61,25.45,66.61,25.45-18.28-23.39-45.59-39.93-45.59-39.93,40.32,6.08,93.97,35.91,93.97,35.91-18-28-38.85-42.54-38.85-42.54,40.88,6.28,88.15,47.92,88.15,47.92-9.07-13.12-36.11-52.05-36.11-52.05,14.33,18.67,73.05,45.29,73.05,45.29-20.41-19.82-29.89-44.33-29.89-44.33,25.96,31.28,77.23,52.62,77.23,52.62-27.81-22.89-34.76-49.02-34.76-49.02,20.73,26.83,66.21,51.84,66.21,51.84-18.93-19.64-29.38-46.32-29.38-46.32,24.26,10.71,60.58,64.29,60.58,64.29-4.44-28.83-22.03-54.87-22.03-54.87,23.66,8.31,63.54,56.31,63.54,56.31Z"/><path class="cls-4" d="M766.08,818.27c20.55-74.74-7.33-134.15-7.33-134.15,13,15.18,16.65,28.68,16.65,28.68-3.74-45.05-20.03-66.4-20.03-66.4,12.7,10.56,21.47,24.62,21.47,24.62-14.39-49-48.85-81.59-48.85-81.59,13.66,6.87,29.11,25.66,29.11,25.66-12.28-45.51-51.82-75.94-51.82-75.94,25.6,13.1,37.59,29.25,37.59,29.25-16.76-41.33-59.48-58.08-59.48-58.08,27.83,4.48,41.89,21.4,41.89,21.4-27.2-40.25-71.73-42.81-71.73-42.81,27.99-6.26,52.78,12.82,52.78,12.82-37.39-37.28-77.46-32.34-77.46-32.34,12.39-7.1,29.2-2.22,29.2-2.22-38.49-28.69-85.99-12.55-85.99-12.55,8.61-8.51,19.01-12.3,19.01-12.3-35.51-5.7-62.21,9.34-73.14,17.04,150.39,42.23,197.64,156.09,197.64,156.09-46.62-80.31-161.17-135.95-194.24-142.69,36.01,39.92,56.21,94.17,56.21,94.17,1.69-28.9-1.5-38.96-3.05-42.05,15.76,25,27.91,65.23,27.91,65.23,.88-28.03-7.39-58.55-7.39-58.55,21.74,33.72,39.36,92.02,39.36,92.02,3.45-30.68-1.87-55.15-1.87-55.15,21.98,34.26,29.52,95.12,29.52,95.12,1.22-14.85,4.78-58.99,4.78-58.99-.87,22.18,21.56,82.27,21.56,82.27-2.3-27.41,4.6-49.6,4.6-49.6-.24,38.62,20.33,89.91,20.33,89.91-5.27-34.81,4.03-56.12,4.03-56.12-1.15,31.98,13.92,81.23,13.92,81.23-1.48-26.2,5.95-50.45,5.95-50.45,9.41,24.65,3.97,84.74,3.97,84.74,12.26-21.11,14.94-50.27,14.94-50.27,10.29,22.72,9.95,82.01,9.95,82.01Z"/></g><g><path class="cls-4" d="M208.57,173.85c58.95-26.14,107.39,3.52,107.39,3.52-12.59-14.29-23.51-17.96-23.51-17.96,36.11,2.64,53.75,20.46,53.75,20.46-8.89-14.1-20.44-23.61-20.44-23.61,39.65,14.64,66.92,52.78,66.92,52.78-5.98-15.33-21.54-32.28-21.54-32.28,36.79,12.36,62.52,56.38,62.52,56.38-11.38-28.72-24.72-41.83-24.72-41.83,33.61,17.62,48.53,65.75,48.53,65.75-4.58-31.59-18.6-47.02-18.6-47.02,33.13,29.58,36.78,80.28,36.78,80.28,3.99-32.15-12.14-59.75-12.14-59.75,31.12,41.31,28.63,87.2,28.63,87.2,5.23-14.39,.72-33.39,.72-33.39,24.3,42.87,13.13,97.64,13.13,97.64,6.48-10.13,9.14-22.13,9.14-22.13,5.83,40.3-5.22,71.3-10.97,84.05-39.16-170.03-131.78-219.82-131.78-219.82,65.82,50.29,114.39,178.94,120.96,216.43-33.18-39.64-77.23-60.72-77.23-60.72,23.02-2.98,31.17,.31,33.69,1.96-20.54-17.07-53.1-29.48-53.1-29.48,22.35-2.01,47.03,6.31,47.03,6.31-27.72-23.59-74.91-41.58-74.91-41.58,24.37-5.04,44.11,.14,44.11,.14-28.15-23.84-77.03-30.24-77.03-30.24,11.81-1.93,46.94-7.58,46.94-7.58-17.68,1.79-66.48-21.63-66.48-21.63,21.97,1.63,39.45-7.04,39.45-7.04-30.83,1.67-72.54-19.94-72.54-19.94,27.99,4.75,44.67-6.63,44.67-6.63-25.5,2.47-65.37-12.95-65.37-12.95,20.98,.74,40.08-8.61,40.08-8.61-20.02-9.85-67.82-1.47-67.82-1.47,16.41-14.75,39.6-18.86,39.6-18.86-18.52-10.92-65.85-8.39-65.85-8.39Z"/><path class="cls-4" d="M60.14,504.88c34.1-79.97,96.74-100.77,96.74-100.77-20.73-.38-32.81,6.95-32.81,6.95,33.51-32.6,61.07-34,61.07-34-17.36-3.79-33.94-.98-33.94-.98,44.75-25.48,94.53-18.34,94.53-18.34-15.63-7.69-40.78-7.53-40.78-7.53,40.7-24.72,93.1-10.92,93.1-10.92-29.45-14.23-50.04-12.85-50.04-12.85,41.46-17.02,87.15,10.84,87.15,10.84-25.41-23.33-48.17-23.32-48.17-23.32,49.13-6.05,86.66,34.97,86.66,34.97-18.26-32.1-51.12-40.75-51.12-40.75,55.31,6.2,84.18,48.93,84.18,48.93-5.15-17.7-21.97-30.03-21.97-30.03,50.38,14.17,77.64,73.09,77.64,73.09-1.16-15.17-6.96-28.28-6.96-28.28,32.41,29.77,43.69,67.69,47.27,84.46-149.52-111.53-264.61-65.7-264.61-65.7,91.88-19.47,221.65,46.61,252.8,73.19-55.99-2.74-108.97,21.34-108.97,21.34,18.21-24.88,27.59-29.87,30.93-30.86-29.6,4.86-66.62,25.45-66.62,25.45,18.28-23.39,45.59-39.93,45.59-39.93-40.32,6.08-93.97,35.91-93.97,35.91,18-28,38.85-42.54,38.85-42.54-40.88,6.28-88.15,47.92-88.15,47.92,9.07-13.12,36.11-52.05,36.11-52.05-14.33,18.67-73.05,45.29-73.05,45.29,20.41-19.82,29.89-44.33,29.89-44.33-25.96,31.28-77.23,52.62-77.23,52.62,27.81-22.89,34.76-49.02,34.76-49.02-20.73,26.83-66.21,51.84-66.21,51.84,18.93-19.64,29.38-46.32,29.38-46.32-24.26,10.71-60.58,64.29-60.58,64.29,4.44-28.83,22.03-54.87,22.03-54.87-23.66,8.31-63.54,56.31-63.54,56.31Z"/><path class="cls-4" d="M244.69,818.27c-20.55-74.74,7.33-134.15,7.33-134.15-13,15.18-16.65,28.68-16.65,28.68,3.74-45.05,20.03-66.4,20.03-66.4-12.7,10.56-21.47,24.62-21.47,24.62,14.39-49,48.85-81.59,48.85-81.59-13.66,6.87-29.11,25.66-29.11,25.66,12.28-45.51,51.82-75.94,51.82-75.94-25.6,13.1-37.59,29.25-37.59,29.25,16.76-41.33,59.48-58.08,59.48-58.08-27.83,4.48-41.89,21.4-41.89,21.4,27.2-40.25,71.73-42.81,71.73-42.81-27.99-6.26-52.78,12.82-52.78,12.82,37.39-37.28,77.46-32.34,77.46-32.34-12.39-7.1-29.2-2.22-29.2-2.22,38.49-28.69,85.99-12.55,85.99-12.55-8.61-8.51-19.01-12.3-19.01-12.3,35.51-5.7,62.21,9.34,73.14,17.04-150.39,42.23-197.64,156.09-197.64,156.09,46.62-80.31,161.17-135.95,194.24-142.69-36.01,39.92-56.21,94.17-56.21,94.17-1.69-28.9,1.5-38.96,3.05-42.05-15.76,25-27.91,65.23-27.91,65.23-.88-28.03,7.39-58.55,7.39-58.55-21.74,33.72-39.36,92.02-39.36,92.02-3.45-30.68,1.87-55.15,1.87-55.15-21.98,34.26-29.52,95.12-29.52,95.12-1.22-14.85-4.78-58.99-4.78-58.99,.87,22.18-21.56,82.27-21.56,82.27,2.3-27.41-4.6-49.6-4.6-49.6,.24,38.62-20.33,89.91-20.33,89.91,5.27-34.81-4.03-56.12-4.03-56.12,1.15,31.98-13.92,81.23-13.92,81.23,1.48-26.2-5.95-50.45-5.95-50.45-9.41,24.65-3.97,84.74-3.97,84.74-12.26-21.11-14.94-50.27-14.94-50.27-10.29,22.72-9.95,82.01-9.95,82.01Z"/></g></g><g><path class="cls-1" d="M610.65,445.43c-1.03-.88-2.06-1.73-3.11-2.57-52.98-41.65-148-14.26-214.62,62.7-63.49,73.35-78.74,165.75-37.8,214.49,2.87,3.43,6.02,6.62,9.44,9.59,52.29,45.27,149.78,18.35,217.72-60.13,67.95-78.49,80.65-178.81,28.35-224.08Z"/><path class="cls-2" d="M394.94,633.28c3.52-28.71,19.22-60.53,43.07-87.29,30.94-34.71,72.63-57.14,106.22-57.14,12.33,0,22.21,3.05,29.38,9.08,8.16,6.86,12.86,18.22,13.88,32.22,1.37-20.97-3.81-38.17-14.99-47.57-7.73-6.5-18.4-9.8-31.7-9.8-36.23,0-81.22,24.2-114.6,61.65-25.73,28.87-42.67,63.2-46.47,94.18-1.73,14.09-2.13,39.83,14.58,53.88,7.73,6.5,18.39,9.8,31.7,9.8,2.07,0,4.18-.09,6.3-.25-9.77-.8-17.79-3.74-23.85-8.83-15.49-13.02-15.11-36.87-13.51-49.93Z"/><path class="cls-5" d="M540.6,630.64c29.88-33.53,44.95-70.8,46.88-100.49-1.02-14.01-5.71-25.36-13.88-32.22-7.16-6.02-17.05-9.08-29.38-9.08-33.58,0-75.28,22.43-106.22,57.14-23.85,26.76-39.55,58.57-43.07,87.29-1.6,13.06-1.97,36.91,13.51,49.93,6.06,5.09,14.07,8.04,23.85,8.83,35.04-2.58,76.82-26.1,108.3-61.41Z"/><path class="cls-3" d="M613.37,436.56c-55.53-48.08-158.11-20.54-229.12,61.48-71.01,82.04-83.58,187.49-28.05,235.56,7,6.06,14.73,10.92,23.09,14.63,25.33,23.98,70.11,53.28,137.76,53.28,114.57,0,179.88-92.08,179.88-182.03,0-82.45-54.61-160.61-83.56-182.93Zm-31.07,232.95c-67.95,78.49-165.43,105.4-217.72,60.13-3.43-2.98-6.57-6.17-9.44-9.59-40.95-48.74-25.7-141.15,37.8-214.49,66.62-76.96,161.64-104.35,214.62-62.7,1.05,.84,2.08,1.69,3.11,2.57,52.3,45.27,39.6,145.6-28.35,224.08Z"/></g></g><path class="cls-3" d="M494,988.01c-131.95,0-256.01-51.38-349.31-144.69C51.38,750.01,0,625.96,0,494.01S51.38,238,144.69,144.69C238,51.39,362.05,0,494,0s256.01,51.39,349.31,144.69c93.31,93.3,144.69,217.36,144.69,349.31s-51.38,256.01-144.69,349.31c-93.31,93.31-217.36,144.69-349.31,144.69Zm0-959.73C237.2,28.28,28.28,237.2,28.28,494.01s208.92,465.72,465.73,465.72,465.73-208.92,465.73-465.72S750.81,28.28,494,28.28Z"/></g></g></svg>