<?xml version="1.0" encoding="UTF-8"?><svg id="Calque_2" xmlns="http://www.w3.org/2000/svg" viewBox="0 0 918.51 812.5"><defs><style>.cls-1{fill:#623414;}.cls-2{fill:#898b7b;}.cls-3{fill:#e4e4da;}.cls-4{fill:#8ab426;}</style></defs><g id="Layer_1"><g><g><path class="cls-2" d="M770,576.78c-4.46,10.69-13.6,19.65-27.17,26.61-2.11,1.09-4.29,2.11-6.54,3.06,9.53-5.94,16.17-13.15,19.65-21.51,8.96-21.37-3.94-45.49-12.41-57.97-18.63-27.42-51.32-51.61-89.68-66.37-47.25-18.21-98.57-20-132.92-5.03-2.92-5.62-5.94-11.07-9-16.31,37.02-18.32,94.81-17.05,147.89,3.37,41.38,15.92,76.64,42.01,96.78,71.61,9.14,13.43,23.06,39.48,13.39,62.54Z"/><path class="cls-3" d="M755.94,584.94c-3.48,8.37-10.12,15.57-19.65,21.51-37.09,15.78-92,13.71-142.62-5.77-13.75-5.31-26.44-11.53-37.93-18.46-1.05-46.09-15.85-90.21-34.8-126.66,34.35-14.98,85.67-13.18,132.92,5.03,38.35,14.76,71.05,38.95,89.68,66.37,8.47,12.48,21.37,36.6,12.41,57.97Z"/></g><path class="cls-2" d="M204.09,602.58c3.85-31.43,21.04-66.26,47.15-95.56,33.87-38,79.52-62.56,116.28-62.56,13.5,0,24.32,3.34,32.16,9.94,8.93,7.51,14.08,19.95,15.19,35.28,1.49-22.96-4.17-41.79-16.41-52.08-8.46-7.12-20.14-10.72-34.7-10.72-39.67,0-88.92,26.49-125.46,67.5-28.17,31.61-46.72,69.19-50.88,103.1-1.89,15.43-2.33,43.6,15.96,58.98,8.46,7.12,20.14,10.73,34.7,10.73,2.27,0,4.57-.1,6.9-.27-10.7-.87-19.48-4.1-26.11-9.67-16.95-14.26-16.55-40.37-14.79-54.67Z"/><path class="cls-3" d="M363.55,599.69c32.72-36.7,49.21-77.51,51.32-110.01-1.11-15.33-6.26-27.77-15.19-35.28-7.84-6.6-18.67-9.94-32.16-9.94-36.77,0-82.41,24.56-116.28,62.56-26.11,29.3-43.3,64.13-47.15,95.56-1.75,14.3-2.16,40.41,14.79,54.67,6.63,5.57,15.41,8.8,26.11,9.67,38.36-2.82,84.11-28.57,118.56-67.23Z"/><path class="cls-4" d="M407.32,322.7c22.72,1.46,54.1,8.76,89.13,32,15.69-4.97,32.51-8.17,50.22-9.65,45.14-79.9,101.45-149.9,170.09-186.03,0,0-61.48,56.85-126.7,185.86,33,2.4,67.01,10.36,99.53,23.42,58.83,23.63,108.05,61.57,138.6,106.82,.38,.57,.72,1.14,1.1,1.71,47.12-159.17-15.9-391.42,89.21-476.82-45.23,5.65-386.67,53.25-511.18,322.7Z"/><path class="cls-1" d="M683.48,383.51c-68.27-27.42-137.77-29.56-189.67-10.59l.08-.07c-63.66-45.55-114.59-32.24-114.59-32.24h.01c29.85,2.03,56.38,12.37,77.26,30.27,5.72,4.47,12.23,10.67,19.12,18.31h0c1.03,1.13,2.06,2.26,3.1,3.46,50.55-25.84,125.85-26.61,199.75,3.09,103.21,41.45,167.23,127.61,151.06,198.76-1.12,5.03-2.64,9.91-4.57,14.76-29.56,73.58-143.04,97.27-253.5,52.91-8.54-3.45-16.84-7.17-24.82-11.18-.3,1.03-.66,2.03-.97,3.05-.71,2.33-1.44,4.66-2.22,6.96-.49,1.45-1.01,2.9-1.53,4.34-.83,2.29-1.7,4.57-2.6,6.83-.54,1.35-1.06,2.7-1.62,4.03-1.08,2.58-2.23,5.14-3.4,7.68-.44,.96-.85,1.93-1.31,2.87-1.65,3.43-3.38,6.82-5.19,10.16-.48,.89-1.01,1.76-1.51,2.64-1.38,2.47-2.8,4.91-4.27,7.32-.74,1.21-1.5,2.39-2.26,3.58-1.32,2.07-2.68,4.13-4.07,6.15-.83,1.21-1.67,2.42-2.53,3.61-1.46,2.04-2.97,4.05-4.51,6.03-.82,1.06-1.61,2.13-2.45,3.17-2.18,2.72-4.43,5.4-6.74,8-.19,.22-.37,.45-.56,.66h0c-40.23,44.97-97.49,69.74-161.23,69.74-5.57,0-10.97-.21-16.29-.53l-.52,.53c103.77,20.67,182.29-33.48,197.32-44.82,53.71,28.87,121.05,34.46,189.04-.53,68.97-35.51,99.24-88.83,112.46-126.59,6.57-8.16,11.92-17.16,15.89-27.03,31.36-78.11-36.77-179.01-152.18-225.37Z"/><path class="cls-4" d="M179.99,443.79c15.9-18.36,33.28-34.51,51.54-48.17-33.52-40.44-55.9-60.97-55.9-60.97,22.35,15.93,44.05,34.29,65.01,54.4,22.13-15.31,45.38-26.95,68.74-34.43C247.18,288.26,149.81,232.91,0,213.61c60.36,39.81,80.44,180.34,137.28,292.78,11.35-21.81,25.69-42.93,42.71-62.59Z"/><path class="cls-1" d="M443.22,387.21c-60.79-52.63-173.09-22.48-250.84,67.31-77.74,89.82-91.5,205.26-30.71,257.89,7.67,6.63,16.13,11.96,25.27,16.01,27.74,26.26,76.76,58.33,150.82,58.33,125.43,0,196.94-100.81,196.94-199.28,0-90.26-59.78-175.84-91.48-200.27ZM170.84,708.07c-3.75-3.26-7.2-6.75-10.34-10.5-44.83-53.36-28.13-154.52,41.38-234.82,72.94-84.26,176.96-114.25,234.96-68.65,1.15,.91,2.27,1.85,3.4,2.81,57.25,49.56,43.35,159.4-31.04,245.33-74.39,85.93-181.11,115.4-238.36,65.83Z"/></g></g></svg>