<?xml version="1.0" encoding="UTF-8"?><svg id="Calque_2" xmlns="http://www.w3.org/2000/svg" viewBox="0 0 1035.48 1040.06"><defs><style>.cls-1{fill:#623414;}.cls-2{fill:#898b7b;}.cls-3{fill:#e4e4da;}</style></defs><g id="Layer_1"><g><path class="cls-2" d="M383.51,692.43c24.28-37.9,67.73-71.96,119.21-93.43,66.78-27.85,140.37-31.23,187.48-8.61,17.29,8.3,29.1,19.25,35.09,32.52,6.83,15.12,5.76,34.21-2.24,54.55,16.04-28.5,20.36-56.11,11.01-76.82-6.47-14.32-19.2-26.13-37.86-35.09-50.83-24.41-130.23-20.76-202.28,9.29-55.55,23.16-102.43,59.9-128.62,100.8-11.91,18.6-29.81,54.43-15.84,85.39,6.47,14.32,19.2,26.13,37.86,35.09,2.91,1.4,5.92,2.69,9.01,3.9-13.17-7.7-22.44-17.23-27.5-28.46-12.95-28.7,3.64-61.9,14.68-79.14Z"/><path class="cls-3" d="M589.6,786.84c64.5-26.9,110.73-69.03,133.44-109.37,8-20.33,9.07-39.42,2.24-54.55-5.99-13.28-17.8-24.22-35.09-32.52-47.11-22.62-120.7-19.24-187.48,8.61-51.48,21.47-94.93,55.52-119.21,93.43-11.04,17.24-27.63,50.45-14.68,79.14,5.06,11.22,14.33,20.75,27.5,28.46,50.89,19.99,125.34,15.14,193.27-13.19Z"/><g><g><g><path class="cls-1" d="M69.09,356.16c27.33-14.82,49.75,1.37,49.75,1.37-5.82-7.85-10.87-9.83-10.87-9.83,16.72,1.27,24.88,11.05,24.88,11.05-4.11-7.77-9.44-12.98-9.44-12.98,18.35,7.9,30.95,28.91,30.95,28.91-2.75-8.47-9.95-17.79-9.95-17.79,17.03,6.66,28.9,30.93,28.9,30.93-5.25-15.87-11.41-23.06-11.41-23.06,15.55,9.59,22.42,36.2,22.42,36.2-2.09-17.49-8.57-25.97-8.57-25.97,15.32,16.22,16.96,44.32,16.96,44.32,1.88-17.85-5.57-33.07-5.57-33.07,14.38,22.74,13.17,48.2,13.17,48.2,2.44-8.01,.37-18.52,.37-18.52,11.21,23.64,5.99,54.08,5.99,54.08,3.01-5.65,4.25-12.32,4.25-12.32,2.66,22.32-2.49,39.57-5.16,46.67-17.97-94.08-60.83-121.19-60.83-121.19,30.44,27.53,52.81,98.61,55.82,119.37-15.33-21.8-35.72-33.25-35.72-33.25,10.67-1.78,14.44,0,15.61,.9-9.5-9.36-24.57-16.06-24.57-16.06,10.36-1.24,21.78,3.24,21.78,3.24-12.82-12.93-34.66-22.65-34.66-22.65,11.3-2.93,20.43-.16,20.43-.16-13.02-13.07-35.65-16.35-35.65-16.35,5.47-1.13,21.75-4.46,21.75-4.46-8.19,1.09-30.77-11.63-30.77-11.63,10.18,.78,18.28-4.12,18.28-4.12-14.28,1.09-33.58-10.67-33.58-10.67,12.96,2.48,20.7-3.92,20.7-3.92-11.81,1.51-30.27-6.83-30.27-6.83,9.72,.3,18.57-4.99,18.57-4.99-9.27-5.35-31.41-.45-31.41-.45,7.62-8.27,18.36-10.67,18.36-10.67-8.57-5.95-30.5-4.3-30.5-4.3Z"/><path class="cls-1" d="M0,540.55c15.87-44.53,44.91-56.41,44.91-56.41-9.6-.1-15.21,4.04-15.21,4.04,15.56-18.26,28.33-19.19,28.33-19.19-8.04-2.01-15.72-.36-15.72-.36,20.75-14.37,43.81-10.69,43.81-10.69-7.23-4.18-18.88-3.96-18.88-3.96,18.88-13.93,43.14-6.56,43.14-6.56-13.63-7.73-23.17-6.85-23.17-6.85,19.22-9.66,40.36,5.54,40.36,5.54-11.75-12.8-22.29-12.67-22.29-12.67,22.77-3.62,40.11,18.92,40.11,18.92-8.43-17.7-23.64-22.32-23.64-22.32,25.61,3.14,38.95,26.68,38.95,26.68-2.37-9.79-10.15-16.53-10.15-16.53,23.32,7.59,35.89,40.11,35.89,40.11-.52-8.41-3.19-15.65-3.19-15.65,14.98,16.34,20.17,37.3,21.81,46.58-69.15-61.04-122.51-34.99-122.51-34.99,42.58-11.3,102.63,24.64,117.04,39.21-25.93-1.22-50.5,12.43-50.5,12.43,8.46-13.89,12.81-16.72,14.36-17.28-13.72,2.86-30.88,14.47-30.88,14.47,8.49-13.07,21.16-22.39,21.16-22.39-18.68,3.59-43.57,20.43-43.57,20.43,8.37-15.63,18.04-23.8,18.04-23.8-18.94,3.71-40.88,27.06-40.88,27.06,4.22-7.33,16.78-29.06,16.78-29.06-6.65,10.43-33.88,25.51-33.88,25.51,9.47-11.1,13.89-24.75,13.89-24.75-12.06,17.49-35.83,29.6-35.83,29.6,12.91-12.85,16.15-27.37,16.15-27.37-9.63,14.99-30.72,29.11-30.72,29.11,8.79-10.99,13.66-25.85,13.66-25.85-11.25,6.07-28.13,35.98-28.13,35.98,2.08-16.01,10.26-30.55,10.26-30.55-10.97,4.74-29.49,31.57-29.49,31.57Z"/><path class="cls-1" d="M85.18,713.34c-9.44-41.34,3.53-74.43,3.53-74.43-6.04,8.49-7.74,16-7.74,16,1.78-25,9.35-36.93,9.35-36.93-5.89,5.93-9.97,13.77-9.97,13.77,6.71-27.25,22.71-45.51,22.71-45.51-6.33,3.88-13.51,14.39-13.51,14.39,5.73-25.31,24.08-42.4,24.08-42.4-11.87,7.4-17.44,16.43-17.44,16.43,7.8-23.01,27.61-32.53,27.61-32.53-12.9,2.63-19.43,12.09-19.43,12.09,12.64-22.47,33.27-24.13,33.27-24.13-12.96-3.32-24.46,7.4-24.46,7.4,17.36-20.88,35.91-18.36,35.91-18.36-5.73-3.87-13.52-1.07-13.52-1.07,17.86-16.12,39.85-7.43,39.85-7.43-3.98-4.67-8.79-6.72-8.79-6.72,16.46-3.35,28.81,4.84,33.87,9.05-69.71,24.24-91.71,87.64-91.71,87.64,21.68-44.79,74.79-76.27,90.12-80.19-16.72,22.34-26.13,52.53-26.13,52.53-.76-16.02,.73-21.62,1.45-23.34-7.32,13.95-12.99,36.33-12.99,36.33-.38-15.54,3.48-32.51,3.48-32.51-10.11,18.82-18.32,51.25-18.32,51.25-1.57-16.99,.92-30.6,.92-30.6-10.22,19.12-13.77,52.91-13.77,52.91-.55-8.23-2.16-32.69-2.16-32.69,.38,12.3-10.07,45.74-10.07,45.74,1.09-15.21-2.08-27.48-2.08-27.48,.07,21.42-9.51,49.97-9.51,49.97,2.47-19.33-1.81-31.1-1.81-31.1,.5,17.73-6.53,45.12-6.53,45.12,.71-14.54-2.71-27.95-2.71-27.95-4.39,13.72-1.92,47.02-1.92,47.02-5.66-11.64-6.87-27.8-6.87-27.8-4.79,12.66-4.69,45.53-4.69,45.53Z"/></g><g><path class="cls-1" d="M344.08,352.93c-27.28-14.17-49.75,2.54-49.75,2.54,5.85-7.99,10.91-10.09,10.91-10.09-16.73,1.66-24.92,11.64-24.92,11.64,4.13-7.87,9.49-13.2,9.49-13.2-18.38,8.34-31.05,29.64-31.05,29.64,2.78-8.53,10.01-18.02,10.01-18.02-17.06,7.06-29.02,31.61-29.02,31.61,5.3-15.99,11.49-23.33,11.49-23.33-15.59,9.96-22.54,36.73-22.54,36.73,2.15-17.54,8.66-26.18,8.66-26.18-15.37,16.58-17.11,44.72-17.11,44.72-1.81-17.81,5.68-33.2,5.68-33.2-14.46,23.08-13.35,48.51-13.35,48.51-2.41-7.95-.3-18.51-.3-18.51-11.3,23.91-6.18,54.22-6.18,54.22-2.99-5.58-4.21-12.22-4.21-12.22-2.74,22.38,2.35,39.51,5,46.55,18.31-94.51,61.26-122.62,61.26-122.62-30.54,28.25-53.16,99.86-56.25,120.68,15.41-22.16,35.84-34.09,35.84-34.09-10.66-1.52-14.44,.34-15.61,1.27,9.53-9.58,24.63-16.64,24.63-16.64-10.35-1-21.79,3.76-21.79,3.76,12.86-13.23,34.74-23.47,34.74-23.47-11.29-2.66-20.43,.32-20.43,.32,13.07-13.37,35.71-17.19,35.71-17.19-5.47-1.01-21.73-3.95-21.73-3.95,8.19,.9,30.82-12.36,30.82-12.36-10.18,1.02-18.27-3.69-18.27-3.69,14.28,.76,33.62-11.46,33.62-11.46-12.97,2.79-20.69-3.43-20.69-3.43,11.81,1.23,30.3-7.54,30.3-7.54-9.72,.52-18.56-4.56-18.56-4.56,9.29-5.57,31.42-1.19,31.42-1.19-7.59-8.09-18.33-10.24-18.33-10.24,8.59-6.16,30.51-5.01,30.51-5.01Z"/><path class="cls-1" d="M412.51,535.71c-15.72-44.16-44.72-55.35-44.72-55.35,9.61-.32,15.19,3.68,15.19,3.68-15.49-17.9-28.26-18.52-28.26-18.52,8.05-2.2,15.72-.73,15.72-.73-20.7-13.89-43.77-9.66-43.77-9.66,7.25-4.35,18.9-4.4,18.9-4.4-18.83-13.49-43.12-5.55-43.12-5.55,13.66-8.05,23.19-7.4,23.19-7.4-19.19-9.21-40.38,6.49-40.38,6.49,11.79-13.07,22.34-13.2,22.34-13.2-22.75-3.09-40.18,19.87-40.18,19.87,8.49-17.9,23.72-22.88,23.72-22.88-25.63,3.74-39.05,27.59-39.05,27.59,2.4-9.84,10.21-16.77,10.21-16.77-23.35,8.13-36.04,40.96-36.04,40.96,.55-8.42,3.25-15.72,3.25-15.72-15.04,16.69-20.31,37.78-21.98,47.09,69.37-62.66,122.64-37.87,122.64-37.87-42.54-10.3-102.72,27.05-117.18,41.96,25.94-1.82,50.46,11.24,50.46,11.24-8.41-13.7-12.75-16.42-14.3-16.95,13.71,2.53,30.83,13.75,30.83,13.75-8.44-12.87-21.08-21.9-21.08-21.9,18.67,3.15,43.49,19.4,43.49,19.4-8.31-15.43-17.96-23.38-17.96-23.38,18.93,3.26,40.79,26.1,40.79,26.1-4.19-7.23-16.67-28.67-16.67-28.67,6.62,10.28,33.79,24.72,33.79,24.72-9.43-10.88-13.8-24.42-13.8-24.42,11.99,17.21,35.73,28.76,35.73,28.76-12.86-12.54-16.05-27-16.05-27,9.58,14.76,30.62,28.39,30.62,28.39-8.75-10.79-13.57-25.53-13.57-25.53,11.23,5.81,28,35.32,28,35.32-2.03-15.96-10.15-30.31-10.15-30.31,10.95,4.48,29.38,30.88,29.38,30.88Z"/><path class="cls-1" d="M326.71,710.51c9.59-41.56-3.26-74.35-3.26-74.35,6.01,8.35,7.69,15.82,7.69,15.82-1.69-24.96-9.22-36.71-9.22-36.71,5.87,5.79,9.92,13.54,9.92,13.54-6.62-27.09-22.55-44.98-22.55-44.98,6.32,3.73,13.46,14.07,13.46,14.07-5.64-25.17-23.93-41.83-23.93-41.83,11.84,7.12,17.39,16.02,17.39,16.02-7.72-22.83-27.5-31.88-27.5-31.88,12.89,2.33,19.39,11.64,19.39,11.64-12.56-22.17-33.19-23.35-33.19-23.35,12.97-3.62,24.44,6.82,24.44,6.82-17.28-20.47-35.85-17.52-35.85-17.52,5.75-4.01,13.53-1.39,13.53-1.39-17.8-15.7-39.82-6.49-39.82-6.49,4-4.76,8.82-6.92,8.82-6.92-16.44-2.97-28.83,5.52-33.9,9.85,69.62,22.6,91.4,85.49,91.4,85.49-21.52-44.29-74.52-74.52-89.84-78.07,16.64,21.94,25.94,51.92,25.94,51.92,.81-16.04-.66-21.6-1.37-23.3,7.27,13.78,12.86,36.02,12.86,36.02,.43-15.55-3.36-32.43-3.36-32.43,10.04,18.58,18.14,50.82,18.14,50.82,1.63-17.03-.81-30.58-.81-30.58,10.15,18.88,13.58,52.59,13.58,52.59,.58-8.24,2.27-32.74,2.27-32.74-.42,12.31,9.91,45.51,9.91,45.51-1.04-15.19,2.18-27.53,2.18-27.53-.15,21.42,9.33,49.75,9.33,49.75-2.41-19.28,1.92-31.14,1.92-31.14-.57,17.74,6.37,44.97,6.37,44.97-.66-14.52,2.81-28.01,2.81-28.01,4.34,13.62,1.76,46.97,1.76,46.97,5.7-11.77,6.97-27.96,6.97-27.96,4.74,12.55,4.53,45.43,4.53,45.43Z"/></g></g><path class="cls-1" d="M218.07,520.96c.3,60.7,6.91,121.18,23.79,178.43,4.31,14.27,9.04,28.37,14.47,42.18,5.51,13.78,11.68,27.25,18.42,40.41,13.51,26.29,29.56,51.2,48.05,74.17,1.97,2.48,3.98,4.93,6.01,7.37l-24.91,28.31c-3.5-4.31-6.94-8.66-10.24-13.13-19.18-25.52-35.69-53.05-49.26-81.86-6.66-14.47-12.65-29.21-17.91-44.19-5.14-15.02-9.68-30.21-13.39-45.58-14.83-61.55-17.91-124.89-13-186.79,.38-4.6,4.22-8.26,8.93-8.29,4.97-.02,9.02,3.98,9.04,8.95v.02Z"/></g><g><g><g><path class="cls-1" d="M835.41,.38c-45.64-4.36-66.74,30.53-66.74,30.53,3.37-14.02,9.09-19.61,9.09-19.61-21.97,11.36-27.4,29.34-27.4,29.34,1.09-12.92,5.34-23.06,5.34-23.06-20.36,21.31-25.35,57.08-25.35,57.08-1.14-13.08,3.25-29.88,3.25-29.88-19.28,18.85-21.41,58.64-21.41,58.64-2.03-24.56,2.19-37.88,2.19-37.88-15.58,21.98-9.56,62.06-9.56,62.06-7.25-24.95-3.34-40.2-3.34-40.2-11.44,30.85,2.53,69.94,2.53,69.94-12.84-23.15-11.5-48.1-11.5-48.1-6.41,39.15,9.9,73.02,9.9,73.02-7.92-9.47-11.17-24.93-11.17-24.93-1.59,38.56,23.05,76.86,23.05,76.86-7.35-5.94-12.88-14.28-12.88-14.28,9.25,31.83,26.18,52.28,33.91,60.38-29.84-138.07,12.72-199.57,12.72-199.57-25.45,54.92-14.85,164.31-6.97,194.21,8.24-38.43,29.32-65.73,29.32-65.73-15.5,3.74-19.6,8.32-20.66,10.22,7.5-18.17,24.09-35.96,24.09-35.96-14.77,4.29-27.69,16.96-27.69,16.96,9.94-24.94,33.99-50.73,33.99-50.73-17.02,2.53-27.83,11.56-27.83,11.56,10.14-25.24,38.97-42.75,38.97-42.75-8.09,1.62-32.1,6.48-32.1,6.48,11.75-3.24,35.07-33.53,35.07-33.53-13.36,6.93-27.19,4.95-27.19,4.95,20.02-6.75,39.44-33.84,39.44-33.84-16.16,10.84-30.36,6.61-30.36,6.61,16.91-4.76,37.16-26.71,37.16-26.71-13.02,6-28.09,3.93-28.09,3.93,9.49-12.61,42.39-18.71,42.39-18.71-15.11-6.83-31.08-3.9-31.08-3.9,8.2-13.02,38.92-23.41,38.92-23.41Z"/><path class="cls-1" d="M1035.48,210.86c-47.22-51.3-93.48-50.68-93.48-50.68,12.98-5.67,22.97-3.29,22.97-3.29-31.64-15.82-49.51-9.72-49.51-9.72,9.76-7.36,21.13-9.55,21.13-9.55-36.46-7.55-65.63,10.75-65.63,10.75,7.41-9.84,23.35-16.26,23.35-16.26-33.65-8.03-62.34,15.95-62.34,15.95,14.04-18.35,27.5-22.65,27.5-22.65-31.66-2.04-51.6,30.78-51.6,30.78,8.57-24.15,22.96-30.05,22.96-30.05-32.99,8.21-43.54,48.81-43.54,48.81,1.24-28.89,19.23-43.93,19.23-43.93-32.96,19.02-37.49,58.66-37.49,58.66-2.43-14.65,4.25-28.29,4.25-28.29-27.29,23.74-25.6,75.14-25.6,75.14-4.13-11.71-4.68-23.08-4.68-23.08-10.92,30.81-5.88,62.26-2.76,75.8,58.69-122.72,146.13-118.12,146.13-118.12-64.31,9.21-125.11,92.61-136.27,120.69,34.5-16.6,75.71-12.24,75.71-12.24-19.49-13.98-27.03-15.31-29.45-15.18,20.27-4.03,50.27,1.85,50.27,1.85-19.06-12.85-41.63-18.2-41.63-18.2,27.43-5.89,70.91,2.61,70.91,2.61-20.36-16.39-38.21-21.91-38.21-21.91,27.85-5.89,71.09,13.16,71.09,13.16-9.95-7.51-39.53-29.78-39.53-29.78,15.05,10.33,60.7,15.1,60.7,15.1-19.26-9.61-33.12-25.59-33.12-25.59,26.45,16.79,65.7,19.53,65.7,19.53-24.92-10-37.7-27.85-37.7-27.85,21.71,14.8,58.48,21.81,58.48,21.81-18.27-9.86-33.44-27.22-33.44-27.22,18.77,1.76,58.92,32.63,58.92,32.63-12.06-20.54-31.54-35.56-31.54-35.56,17.62,.11,58.23,25.86,58.23,25.86Z"/><path class="cls-1" d="M1019.45,494.52c-11.01-61.56-47.69-99.01-47.69-99.01,13.09,8.04,19.73,17.25,19.73,17.25-16.82-32.92-33.97-44.75-33.97-44.75,11.41,4.65,21.47,12.95,21.47,12.95-24.82-33.12-57.06-48.69-57.06-48.69,10.83,1.62,26.63,11.74,26.63,11.74-22.37-31.05-57.13-43.67-57.13-43.67,20.38,3.21,33.15,12.25,33.15,12.25-23.85-26.74-56.23-28.25-56.23-28.25,19.03-3.86,33.34,5.22,33.34,5.22-30.11-23.22-59.07-13.58-59.07-13.58,15.68-11.97,37.47-4.06,37.47-4.06-35.6-18.34-59.34-4.22-59.34-4.22,5.55-8.56,17.74-9.25,17.74-9.25-33.53-11.59-58.37,12.88-58.37,12.88,2.71-8.64,8.07-14.19,8.07-14.19-24.27,4.94-36.31,23.18-40.76,31.81,108.6-7.28,175,66.1,175,66.1-55.25-48.31-145.49-60.42-168.56-56.9,35.57,20.68,65.75,56.24,65.75,56.24-8.21-22.18-13.46-28.92-15.43-30.84,17.98,14.72,38.58,41.82,38.58,41.82-8.44-21.31-23.46-42.13-23.46-42.13,24.57,19.72,54.42,59,54.42,59-7.67-23.97-18.88-41-18.88-41,24.89,20.07,49.19,63.89,49.19,63.89-3.99-11.49-15.92-45.62-15.92-45.62,6.57,16.91,40.03,56.29,40.03,56.29-10.25-20.02-13.02-38.51-13.02-38.51,12.24,29.11,41.71,62.36,41.71,62.36-14.5-24.82-15.46-43.26-15.46-43.26,9.54,24.36,34.87,57.49,34.87,57.49-9.35-19.33-12.43-39.5-12.43-39.5,13.86,16.1,29.71,62.72,29.71,62.72,.97-19.06-6.69-41.69-6.69-41.69,13.8,14.42,32.62,59.11,32.62,59.11Z"/></g><g><path class="cls-1" d="M460.26,154.5c28.86-34.97,69-25.23,69-25.23-12.54-7.48-20.62-7.41-20.62-7.41,23.67-7.39,40.53,1.44,40.53,1.44-10.15-8.3-20.49-12.45-20.49-12.45,29.76,.72,59.23,22.33,59.23,22.33-8.7-9.98-23.97-18.69-23.97-18.69,27.22-.25,57.61,26.18,57.61,26.18-16.42-18.65-29.05-25.05-29.05-25.05,26.9,4.53,51.77,36.86,51.77,36.86-13.04-22.57-26.85-30.54-26.85-30.54,30.43,13.65,49.01,50.84,49.01,50.84-7.8-25.22-26.85-41.79-26.85-41.79,32.93,22.99,46.08,58.16,46.08,58.16-1.32-12.18-10.26-25.3-10.26-25.3,29.12,25.94,39.64,70.04,39.64,70.04,.84-9.3-1.33-19.02-1.33-19.02,16.62,28.8,19.59,54.99,20.05,66.08-79.33-117.74-153.85-131.14-153.85-131.14,57.74,20.74,129.73,104.91,145.92,131.4-33.69-21.2-68.3-25.63-68.3-25.63,13.59-8.21,19.8-7.86,21.92-7.27-18.46-7.51-43.02-8.39-43.02-8.39,13.48-7.32,31.74-7.46,31.74-7.46-25.09-10.55-60.69-11.83-60.69-11.83,13.78-10.12,27.92-11.35,27.92-11.35-25.44-10.62-58.39-2.75-58.39-2.75,6.85-4.52,27.23-17.89,27.23-17.89-10.6,5.94-48.95,.99-48.95,.99,14.41-4.48,22.67-15.54,22.67-15.54-18.95,9.26-52.24,3.83-52.24,3.83,19.21-3.69,26.1-16.58,26.1-16.58-15.32,8.48-45.47,7.23-45.47,7.23,13.5-4.89,22.56-16.88,22.56-16.88-15.82-2.21-43.33,16.5-43.33,16.5,5.64-15.36,18.97-24.47,18.97-24.47-15.21-3.41-44.31,10.78-44.31,10.78Z"/><path class="cls-1" d="M472.72,442.06c-4.12-69.01,28.79-100.92,28.79-100.92-13.22,5.1-18.5,13.75-18.5,13.75,10.71-33.23,27.68-41.43,27.68-41.43-12.19,1.66-21.76,8.08-21.76,8.08,20.1-30.78,53.85-38.34,53.85-38.34-12.35-1.73-28.19,4.92-28.19,4.92,17.78-29.16,55.33-32.39,55.33-32.39-23.18-3.06-35.74,3.33-35.74,3.33,20.74-23.56,58.56-14.47,58.56-14.47-23.55-10.95-37.93-5.04-37.93-5.04,29.11-17.3,65.99,3.81,65.99,3.81-21.85-19.41-45.39-17.38-45.39-17.38,36.94-9.7,68.91,14.95,68.91,14.95-8.94-11.98-23.53-16.88-23.53-16.88,36.39-2.42,72.53,34.83,72.53,34.83-5.6-11.11-13.47-19.47-13.47-19.47,30.04,13.98,49.34,39.58,56.98,51.26-130.29-45.08-188.31,19.28-188.31,19.28,51.81-38.5,155.04-22.49,183.26-10.58-36.26,12.47-62.01,44.34-62.01,44.34,3.52-23.44,7.85-29.64,9.64-31.25-17.15,11.34-33.93,36.44-33.93,36.44,4.04-22.34,15.99-41.88,15.99-41.88-23.53,15.04-47.86,51.41-47.86,51.41,2.39-25.74,10.9-42.09,10.9-42.09-23.82,15.34-40.33,58.94-40.33,58.94,1.52-12.23,6.11-48.53,6.11-48.53-3.06,17.77-31.63,53.03-31.63,53.03,6.54-20.2,4.66-41.11,4.66-41.11-6.36,30.27-31.92,59.64-31.92,59.64,10.23-24.44,6.23-45.9,6.23-45.9-4.49,25.56-25.2,56.19-25.2,56.19,5.66-19.69,3.7-42.47,3.7-42.47-11.89,14.36-17.65,64.09-17.65,64.09-6.45-22.84-3.69-46.99-3.69-46.99-12.28,12.4-22.08,58.85-22.08,58.85Z"/><path class="cls-1" d="M689.95,629.88c-36.98-50.89-38.43-102.82-38.43-102.82-3.35,14.79-1.32,25.9-1.32,25.9-12.1-34.86-8.65-55.15-8.65-55.15-4.63,11.24-5.67,24.1-5.67,24.1-6.64-40.59,4.68-74.06,4.68-74.06-6.43,8.71-10.16,26.86-10.16,26.86-6.85-37.43,8.37-70.58,8.37-70.58-11.97,16.5-14.37,31.76-14.37,31.76-2.68-35.44,18.95-59.13,18.95-59.13-16.15,10.59-19.61,26.97-19.61,26.97,4.27-37.34,31.59-50.83,31.59-50.83-19.69,2.56-29.24,23.35-29.24,23.35,11.66-37.75,38.57-44.44,38.57-44.44-10.11-2.13-19.16,5.91-19.16,5.91,15.12-31.57,50.31-31.77,50.31-31.77-8.17-4.16-15.96-4.32-15.96-4.32,20.61-13.5,42.31-9.12,51.69-6.17-81.48,70.81-74.8,168.73-74.8,168.73,3.68-72.52,58.21-144.11,76.95-157.77-9.94,39.38-5.29,85.43-5.29,85.43-10.35-21.3-11.56-29.7-11.57-32.43-1.93,22.9,3.3,56.31,3.3,56.31-9.55-20.86-14.13-45.96-14.13-45.96-2.92,31.01,4.66,79.44,4.66,79.44-12.03-22.18-16.53-41.97-16.53-41.97-2.89,31.48,11.88,79.22,11.88,79.22-5.54-10.85-21.96-43.13-21.96-43.13,7.67,16.46,12.78,67.48,12.78,67.48-7.35-21.21-18.83-36.12-18.83-36.12,12.55,28.99,16.01,72.91,16.01,72.91-7.85-27.55-20.56-41.17-20.56-41.17,10.99,23.76,17.28,64.72,17.28,64.72-7.48-20.1-19.96-36.41-19.96-36.41,1.96,20.99,24.69,64.78,24.69,64.78-14.52-12.69-25.58-33.93-25.58-33.93,.79,19.76,20.04,64.28,20.04,64.28Z"/></g></g><path class="cls-1" d="M752.17,298.68c-4.22-7.18-13.97-9.85-20.97-3.48-4.06,3.69-5.15,9.68-3.04,14.75v.02c39.87,79.73,62.67,153.76,74.15,220.68-62.55-77.51-205.57-94.64-342.71-35.11-154.87,67.25-243.52,206.69-198.02,311.53,5.74,13.22,13.31,25.24,22.53,36.07,19.38,50.71,62.46,121.96,157.35,167.53,160.71,77.17,314.35-8,374.93-134.17,5.34-11.12,140.02-230.51-64.23-577.81Zm-130.26,570.77c-148.18,64.32-303.04,36.42-345.91-62.3-2.8-6.48-5.07-13.08-6.79-19.82-24.6-95.95,59.02-215.29,197.49-275.41,142.45-61.85,291.03-38.42,340.38,51.22,16.89,38.03,26.41,68.35,2.67,131.89-27.83,68.14-95.68,134.41-187.85,174.42Z"/></g></g></g></svg>