<?xml version="1.0" encoding="UTF-8"?><svg id="Calque_2" xmlns="http://www.w3.org/2000/svg" viewBox="0 0 1072.09 1018.66"><defs><style>.cls-1{fill:#fff;}.cls-2{fill:#623414;}.cls-3{fill:#898b7b;}.cls-4{fill:#5b8a30;}.cls-5{fill:#e4e4da;}.cls-6{fill:#8ab426;}</style></defs><g id="Layer_1"><g><g><circle class="cls-1" cx="671.21" cy="326.46" r="277.02"/><g><circle class="cls-5" cx="671.21" cy="326.46" r="219.45" transform="translate(-34.25 570.23) rotate(-45)"/><path class="cls-3" d="M536.44,326.46c0-106.71,76.18-195.59,177.11-215.33-13.7-2.68-27.85-4.12-42.34-4.12-121.2,0-219.45,98.25-219.45,219.45s98.25,219.45,219.45,219.45c14.49,0,28.63-1.44,42.34-4.12-100.93-19.73-177.11-108.62-177.11-215.33Z"/></g><path class="cls-6" d="M671.21,652.92c-180.01,0-326.46-146.45-326.46-326.46S491.2,0,671.21,0s326.46,146.45,326.46,326.46-146.45,326.46-326.46,326.46Zm0-585.19c-142.66,0-258.73,116.07-258.73,258.73s116.07,258.73,258.73,258.73,258.73-116.07,258.73-258.73S813.87,67.73,671.21,67.73Z"/></g><g><circle class="cls-1" cx="326.46" cy="624.47" r="277.02"/><g><circle class="cls-5" cx="326.46" cy="624.47" r="219.45" transform="translate(-345.95 413.75) rotate(-45)"/><path class="cls-3" d="M191.69,624.47c0-106.71,76.18-195.59,177.11-215.33-13.7-2.68-27.85-4.12-42.34-4.12-121.2,0-219.45,98.25-219.45,219.45s98.25,219.45,219.45,219.45c14.49,0,28.63-1.44,42.34-4.12-100.93-19.73-177.11-108.62-177.11-215.33Z"/></g><path class="cls-2" d="M326.46,950.93C146.45,950.93,0,804.49,0,624.47S146.45,298.01,326.46,298.01s326.46,146.45,326.46,326.46-146.45,326.46-326.46,326.46Zm0-585.19c-142.66,0-258.73,116.07-258.73,258.73s116.07,258.73,258.73,258.73,258.73-116.07,258.73-258.73-116.07-258.73-258.73-258.73Z"/></g><g><circle class="cls-1" cx="745.63" cy="692.2" r="277.02"/><g><circle class="cls-5" cx="745.63" cy="692.2" r="219.45" transform="translate(-271.07 729.98) rotate(-45)"/><path class="cls-3" d="M610.86,692.2c0-106.71,76.18-195.59,177.11-215.33-13.7-2.68-27.85-4.12-42.34-4.12-121.2,0-219.45,98.25-219.45,219.45s98.25,219.45,219.45,219.45c14.49,0,28.63-1.44,42.34-4.12-100.93-19.73-177.11-108.62-177.11-215.33Z"/></g><path class="cls-4" d="M745.63,1018.66c-180.01,0-326.46-146.45-326.46-326.46s146.45-326.46,326.46-326.46,326.46,146.45,326.46,326.46-146.45,326.46-326.46,326.46Zm0-585.19c-142.66,0-258.73,116.07-258.73,258.73s116.07,258.73,258.73,258.73,258.73-116.07,258.73-258.73-116.07-258.73-258.73-258.73Z"/></g></g></g></svg>