<?xml version="1.0" encoding="UTF-8"?><svg id="Calque_2" xmlns="http://www.w3.org/2000/svg" viewBox="0 0 578.06 1107.34"><defs><style>.cls-1{fill:#898b7b;}.cls-2{fill:#734f41;}.cls-3{fill:#e4e4da;}</style></defs><g id="Layer_1"><g><circle class="cls-3" cx="303.8" cy="835.08" r="153.96"/><g><g><path class="cls-2" d="M240.96,0c-38.19,14.05-41.67,50.07-41.67,50.07-2.69-12.51-.26-19.19-.26-19.19-13.22,17.53-10.65,34.01-10.65,34.01-4.09-10.76-4.59-20.5-4.59-20.5-8.1,24.87,1.65,55.41,1.65,55.41-5.94-10.03-8.88-25.15-8.88-25.15-8.18,22.49,5.4,55.15,5.4,55.15-11.06-18.88-12.8-31.15-12.8-31.15-4.02,23.57,16.19,53.33,16.19,53.33-15.39-17.18-18.12-30.88-18.12-30.88,2.7,29.08,28.9,54.99,28.9,54.99-19.17-13.59-27.68-34.06-27.68-34.06,9.92,33.79,35.98,54.63,35.98,54.63-9.98-4.53-18.52-15.65-18.52-15.65,13.54,31.47,47.97,52.64,47.97,52.64-8.16-1.93-15.79-6.48-15.79-6.48,19.63,21.91,41.04,31.77,50.33,35.28-76.92-99.01-66.5-164.57-66.5-164.57,.73,53.72,51.25,137.17,69.04,158.07-8.17-33.92-1.8-63.85-1.8-63.85-10.97,8.95-12.48,14.19-12.61,16.12-.98-17.42,5.46-38.03,5.46-38.03-10.17,9.11-15.64,24.21-15.64,24.21-1.62-23.78,7.71-53.65,7.71-53.65-12.65,8.57-17.83,19.94-17.83,19.94-1.58-24.09,14.76-49.18,14.76-49.18-5.85,4.4-23.19,17.52-23.19,17.52,8.15-7.11,15.18-40.3,15.18-40.3-8.03,10.68-19.85,14.4-19.85,14.4,13.43-13.09,18.56-42.23,18.56-42.23-8.77,14.89-21.75,16.95-21.75,16.95,11.7-10.31,19.47-35.65,19.47-35.65-8.11,9.81-20.97,13.94-20.97,13.94,2.75-13.73,26.72-31.26,26.72-31.26-14.71,.34-26.37,8.82-26.37,8.82,1.56-13.57,22.15-33.69,22.15-33.69Z"/><path class="cls-2" d="M481.91,91.54c-57.49-22.91-94.27-4.64-94.27-4.64,8.21-9.52,17.11-11.46,17.11-11.46-31.4-.5-43.35,11.24-43.35,11.24,4.98-9.64,13.24-15.76,13.24-15.76-32.07,7.97-48.38,33.81-48.38,33.81,2.15-10.72,12.44-21.98,12.44-21.98-30.01,6.51-43.75,36.72-43.75,36.72,4.19-20.08,13.3-28.69,13.3-28.69-26.12,10.54-29.46,44.46-29.46,44.46-2.42-22.61,6.82-32.87,6.82-32.87-23.24,19.24-16.09,55.78-16.09,55.78-10.11-23.59-1.49-42.53-1.49-42.53-19.07,27.89-7.46,61.34-7.46,61.34-7.57-10.79-7.47-24.27-7.47-24.27-12.71,29.48,8.38,69.96,8.38,69.96-7.81-7.78-12.61-16.67-12.61-16.67,3.1,28.85,19.22,52.08,26.91,61.71-.19-120.74,71.54-150.66,71.54-150.66-47.92,32.08-64.53,122.17-62.66,148.92,21.23-26.54,55.88-38.88,55.88-38.88-20.97-3.7-27.51-1.86-29.4-.83,14.67-11.01,40.93-17.83,40.93-17.83-20.18-2.96-40.3,1.43-40.3,1.43,19.69-15.26,57.74-25.15,57.74-25.15-22.59-5.29-38.99-2.85-38.99-2.85,20.02-15.41,61.94-16.78,61.94-16.78-10.85-2.19-43.07-8.64-43.07-8.64,16.01,2.48,54.37-11.24,54.37-11.24-19.1-.29-36.33-7.75-36.33-7.75,27.61,3.27,60.08-9.61,60.08-9.61-23.78,1.57-40.87-7.8-40.87-7.8,23.06,3.5,55.17-5.02,55.17-5.02-18.41-.87-37.21-8.93-37.21-8.93,15.69-5.81,59.68,3.47,59.68,3.47-17.54-11.8-38.89-16.33-38.89-16.33,14.14-6.68,56.53-1.68,56.53-1.68Z"/><path class="cls-2" d="M578.06,324.67c-32.46-45.03-76.2-60.9-76.2-60.9,13.56,1.4,22.42,6.22,22.42,6.22-26.11-19.87-44.38-22.75-44.38-22.75,10.92-.67,22.16,2.11,22.16,2.11-32.59-16.97-64.37-17.04-64.37-17.04,9.29-2.87,25.82-.84,25.82-.84-29.83-16.25-62.49-12.99-62.49-12.99,17.54-5.26,31.23-2.94,31.23-2.94-29.36-12.23-55.85-1-55.85-1,13.74-10.4,28.68-8.64,28.68-8.64-33.01-7.01-52.48,11.83-52.48,11.83,7.94-15.6,28.42-17.64,28.42-17.64-35.53-.99-49.1,19.42-49.1,19.42,1.15-8.98,10.64-14.22,10.64-14.22-31.28,3.61-41.76,32.73-41.76,32.73-1.15-7.95,1-14.45,1-14.45-17.52,13.27-20.15,32.5-20.39,41.11,84.1-47.55,165.42-14.35,165.42-14.35-62.77-17.43-139.63,7.55-156.73,19.23,36.41,2.88,74.22,19.74,74.22,19.74-15.09-14.59-21.88-17.97-24.19-18.75,20.04,4.87,46.94,18.64,46.94,18.64-14.94-13.81-34.96-24.69-34.96-24.69,27.23,6.34,66.21,26.3,66.21,26.3-15.35-16.23-30.86-25.55-30.86-25.55,27.62,6.49,63.91,32.22,63.91,32.22-7.61-7.66-30.26-30.38-30.26-30.38,11.76,11.01,53.66,29.66,53.66,29.66-15.89-12.08-25.21-25.81-25.21-25.81,20.98,18.59,57.33,33.87,57.33,33.87-21.14-14.29-28.99-28.67-28.99-28.67,16.99,15.82,49.99,32.6,49.99,32.6-14.9-11.87-25.12-26.83-25.12-26.83,17.28,7.55,47.87,38.76,47.87,38.76-6.54-15.62-21.37-30.79-21.37-30.79,16.58,6.24,48.81,34.76,48.81,34.76Z"/></g><g><path class="cls-2" d="M0,267.46c9.66-39.07,45.51-46.7,45.51-46.7-12.91-1.16-19.34,2-19.34,2,16.1-15.01,32.98-14.43,32.98-14.43-11.31-2.74-21.18-2.09-21.18-2.09,24.09-10.86,55.98-4.89,55.98-4.89-10.79-4.64-26.36-5.74-26.36-5.74,21.68-10.66,56.15-1.19,56.15-1.19-20.3-8.62-32.87-8.88-32.87-8.88,23.26-6.71,55.59,9.6,55.59,9.6-19.1-13.05-33.21-14.12-33.21-14.12,29.59-.77,58.75,21.85,58.75,21.85-15.93-17.18-37.54-23.12-37.54-23.12,35.18,5.75,59.22,28.83,59.22,28.83-5.73-9.24-17.93-16.3-17.93-16.3,33.27,9.57,58.63,40.81,58.63,40.81-2.9-7.77-8.37-14.71-8.37-14.71,24.37,16.66,36.8,36.47,41.43,45.17-108.71-63.73-173.48-45.82-173.48-45.82,54.17-5.59,144.11,34.1,167.24,49.08-35.11-4.02-64.49,5.74-64.49,5.74,7.72-11.79,12.82-13.9,14.75-14.24-17.65,1.08-37.65,9.81-37.65,9.81,7.97-11.03,22.53-18.17,22.53-18.17-24.13,1.2-53.1,13.85-53.1,13.85,7.14-13.39,17.98-19.81,17.98-19.81-24.44,1.28-47.77,20.23-47.77,20.23,3.74-6.25,14.91-24.77,14.91-24.77-6.2,8.82-38.79,19.6-38.79,19.6,9.81-9.12,12.17-21.14,12.17-21.14-11.6,14.69-40.33,23.14-40.33,23.14,13.96-10.34,14.51-23.3,14.51-23.3-9,12.67-33.6,23.26-33.6,23.26,8.92-9.1,11.57-22.18,11.57-22.18-13.5,4.31-28.33,29.85-28.33,29.85-1.39-14.45,5.78-26.87,5.78-26.87-13.48,3.12-31.31,25.65-31.31,25.65Z"/><path class="cls-2" d="M120.45,492.75c-29.81-53.63-15.74-91.81-15.74-91.81-8.62,9.16-9.52,18.11-9.52,18.11-4.19-30.7,6.23-43.79,6.23-43.79-9.12,6.01-14.31,14.82-14.31,14.82,4.26-32.35,28.36-51.37,28.36-51.37-10.54,3.36-20.67,14.77-20.67,14.77,3.03-30.16,31.83-47.17,31.83-47.17-19.72,6.46-27.32,16.39-27.32,16.39,7.54-26.82,41.29-34.08,41.29-34.08-23.05,.29-32.28,10.54-32.28,10.54,16.64-25.03,54.27-22.31,54.27-22.31-24.94-7.13-42.99,3.53-42.99,3.53,25.83-21.95,60.88-14.51,60.88-14.51-11.75-6.15-25.31-4.47-25.31-4.47,28.18-15.91,71.41,0,71.41,0-8.75-6.74-18.26-10.4-18.26-10.4,29.41-.35,54.68,12.71,65.29,19.12-121.57,13.99-143.27,87.78-143.27,87.78,26.67-50.71,115.41-77.56,142.56-78.88-24.22,23.91-32.58,59.3-32.58,59.3-6.19-20.11-5.11-26.73-4.29-28.7-9.36,15.66-13.15,42.19-13.15,42.19-5.35-19.43-3.29-39.65-3.29-39.65-13.05,21.08-18.54,59.52-18.54,59.52-7.98-21.51-7.45-37.86-7.45-37.86-13.16,21.42-9.62,62.65-9.62,62.65-3.48-10.37-13.76-41.18-13.76-41.18,4.38,15.39-4.93,54.58-4.93,54.58-2.53-18.68-12.07-34.68-12.07-34.68,6.54,26.67-2.62,59.98-2.62,59.98-1.21-23.49-12.65-39.12-12.65-39.12,6.23,22.18,1.43,54.64,1.43,54.64-3.03-17.93-13.36-35.41-13.36-35.41-4,16.06,10.5,58.06,10.5,58.06-13.94-15.8-21.01-36.18-21.01-36.18-5.07,14.64,4.94,55.58,4.94,55.58Z"/><path class="cls-2" d="M366.43,559.58c-49.14-26.51-70.25-67.5-70.25-67.5,3.01,13.12,8.9,21.23,8.9,21.23-23.07-23.24-28.11-40.8-28.11-40.8,.61,10.78,4.72,21.46,4.72,21.46-20.91-29.93-24.71-61.06-24.71-61.06-1.79,9.44,2.19,25.39,2.19,25.39-19.86-27.31-20.42-59.69-20.42-59.69-3.24,17.8,.71,30.94,.71,30.94-15.76-27.33-7.56-54.59-7.56-54.59-8.85,14.68-5.32,29.11-5.32,29.11-10.93-31.52,5.75-52.8,5.75-52.8-14.77,9.62-14.43,29.92-14.43,29.92-5.17-34.69,13.79-50.38,13.79-50.38-8.91,2.18-13.06,12.09-13.06,12.09-.03-31.07,28.05-44.75,28.05-44.75-8.14-.19-14.43,2.68-14.43,2.68,11.31-18.72,30.35-23.56,38.99-24.8-37.99,87.97,4.98,163.74,4.98,163.74-24.92-59.44-8.79-137.67,.96-155.8,7.17,35.33,28.59,70.39,28.59,70.39-16.46-13.07-20.66-19.32-21.72-21.5,7.25,19.06,24.28,43.79,24.28,43.79-15.66-13.02-28.96-31.35-28.96-31.35,9.58,25.94,34.25,61.77,34.25,61.77-18.15-13.13-29.35-27.24-29.35-27.24,9.78,26.3,39.94,58.82,39.94,58.82-8.6-6.56-34.14-26.08-34.14-26.08,12.46,10.23,36.15,49.08,36.15,49.08-14.03-14.15-28.94-21.67-28.94-21.67,21.18,18.37,40.83,52.19,40.83,52.19-16.86-19.03-32.27-25.04-32.27-25.04,17.92,14.78,38.69,45.15,38.69,45.15-13.7-13.21-29.96-21.46-29.96-21.46,9.63,16.04,44.65,42.34,44.65,42.34-16.5-4.58-33.5-17.32-33.5-17.32,8.23,15.51,40.73,43.73,40.73,43.73Z"/></g></g><path class="cls-1" d="M209.25,835.07c0-74.87,53.44-137.22,124.26-151.07-9.61-1.88-19.54-2.89-29.7-2.89-85.03,0-153.96,68.93-153.96,153.96s68.93,153.96,153.96,153.96c10.16,0,20.09-1.01,29.7-2.89-70.81-13.85-124.26-76.2-124.26-151.07Z"/><path class="cls-2" d="M288.96,270.66c65.08,48.69,124.66,106.5,172.33,174.29,11.89,16.94,22.9,34.54,33.21,52.57,10.17,18.12,19.48,36.76,27.94,55.82,16.59,38.25,29.36,78.27,37.86,119.19,4.42,20.43,7.33,41.15,9.59,61.89,2.33,20.75,3.3,41.6,3.71,62.43l.1,15.62c-.04,5.22-.22,10.47-.33,15.71l-.19,7.86-.6,8.29c-.34,5.58-1.09,11-1.74,16.46-2.84,21.8-8.34,43.26-15.85,63.98-7.52,20.74-17.61,40.56-29.59,59.2-12.1,18.57-26.4,35.81-42.57,51.22-32.43,30.64-72.92,53.79-116.93,64.44-21.92,5.46-44.55,8.06-67.01,7.66-22.42-.36-44.94-3.17-66.69-9.11-21.74-5.87-42.88-14.21-62.51-25.32-19.67-11-38.07-24.34-54.37-39.94-32.81-30.95-57.68-70.29-71.73-113.27-7.18-21.45-11.25-43.88-12.87-66.39-1.63-22.51-.29-45.2,3.7-67.47,1.89-11.15,4.77-22.12,8.01-32.96,3.53-10.75,7.33-21.43,12.16-31.68,9.28-20.66,21.36-39.99,35.45-57.68,14.01-17.77,30.55-33.48,48.54-47.17,18.08-13.6,37.88-24.9,58.7-33.77,20.91-8.66,42.86-14.84,65.22-18.24,11.2-1.5,22.46-2.7,33.74-2.85,11.28-.43,22.57,.11,33.81,1.18,45.04,4.17,88.8,20.39,126.06,45.72,13.57,9.22,17.08,27.7,7.86,41.27-9.15,13.46-27.4,17.03-40.94,8.08l-.09-.06c-29.46-19.5-63.6-31.43-98.65-34.64-8.76-.79-17.59-1.19-26.4-.79-8.82,.14-17.57,1.16-26.28,2.33-17.36,2.74-34.34,7.62-50.53,14.39-16.1,6.98-31.43,15.79-45.42,26.42-3.41,2.76-6.97,5.35-10.21,8.32l-4.96,4.34-4.75,4.56c-3.26,2.95-6.12,6.29-9.23,9.4-2.83,3.35-5.88,6.53-8.55,10.02-10.99,13.69-20.47,28.64-27.72,44.64-3.81,7.92-6.74,16.21-9.55,24.52-2.52,8.4-4.83,16.89-6.32,25.55-6.47,34.55-4.11,70.88,6.65,104.29,10.77,33.45,30,64.27,55.57,88.59,25.36,24.53,56.91,42.63,90.92,52.08,16.98,4.88,34.64,7.25,52.37,7.76,17.73,.53,35.38-1.32,52.5-5.37,34.29-7.94,66.3-25.24,92.65-49.33,13.11-12.11,24.9-25.8,34.99-40.73,9.96-15,18.54-31.06,24.99-48.02,6.44-16.94,11.32-34.57,13.96-52.59,.6-4.51,1.34-9.04,1.66-13.49l.62-6.73,.33-7.2c.2-4.81,.49-9.59,.64-14.42l.24-14.52c.33-38.71-2.74-77.38-9.54-115.37-6.58-38.04-17.19-75.34-31.35-111.36-7.09-18-15.01-35.72-23.78-53.04-8.87-17.28-18.64-34.12-28.94-50.69-41.67-66.09-95.39-124.87-154.78-177.66h-.02c-4.86-4.34-5.3-11.78-.98-16.64,4.09-4.6,11.01-5.21,15.86-1.61Z"/></g></g></svg>