<?xml version="1.0" encoding="UTF-8"?><svg id="Calque_2" xmlns="http://www.w3.org/2000/svg" viewBox="0 0 916.27 839.16"><defs><style>.cls-1{fill:#898b7b;}.cls-2{fill:#5b8a30;}.cls-3{fill:#e4e4da;}</style></defs><g id="Layer_1"><g><circle class="cls-3" cx="278.41" cy="560.75" r="157.91" transform="translate(-314.97 361.11) rotate(-45)"/><path class="cls-1" d="M181.44,560.75c0-76.78,54.81-140.74,127.44-154.94-9.86-1.93-20.04-2.97-30.46-2.97-87.21,0-157.91,70.7-157.91,157.91s70.7,157.91,157.91,157.91c10.43,0,20.6-1.04,30.46-2.97-72.63-14.2-127.44-78.16-127.44-154.94Z"/><path class="cls-2" d="M916.27,300.38c-109.38-247.29-308.12-215.36-308.12-215.36,120.19-97.38,238.12-36.53,238.12-36.53-172.86-105.82-291.11-9.33-318.22,16.73-27.11-26.06-145.36-122.55-318.22-16.73,0,0,117.94-60.84,238.12,36.53,0,0-198.74-31.93-308.12,215.36,0,0,102.41-155.82,292.32-134.29,0,0-165.54,130.34-73.26,349.03,0,0-40.53-205.96,169.15-303.45,209.68,97.49,169.15,303.45,169.15,303.45,92.28-218.69-73.26-349.03-73.26-349.03,189.92-21.52,292.32,134.29,292.32,134.29Z"/><path class="cls-2" d="M499.28,206.16v354.59c0,121.79-99.08,220.87-220.87,220.87s-220.87-99.08-220.87-220.87,99.08-220.87,220.87-220.87c74.65,0,144.77,38.36,185.33,100.71v-87.41c-50.42-44.84-116.33-70.84-185.33-70.84C124.9,282.34,0,407.23,0,560.75s124.9,278.41,278.41,278.41,278.41-124.9,278.41-278.41V206.16h-57.54Z"/></g></g></svg>