<?xml version="1.0" encoding="UTF-8"?><svg id="Calque_2" xmlns="http://www.w3.org/2000/svg" viewBox="0 0 787.84 936.58"><defs><style>.cls-1{fill:#623414;}.cls-2{fill:#898b7b;}.cls-3{fill:#e4e4da;}.cls-4{fill:#8ab426;}</style></defs><g id="Layer_1"><g><path class="cls-2" d="M216.06,674.81c5.48-44.68,29.91-94.18,67.02-135.82,48.14-54.01,113.02-88.91,165.28-88.91,19.18,0,34.56,4.75,45.71,14.13,12.7,10.68,20.01,28.35,21.59,50.14,2.12-32.63-5.93-59.39-23.32-74.02-12.03-10.11-28.62-15.24-49.32-15.24-56.38,0-126.38,37.66-178.32,95.93-40.04,44.93-66.4,98.34-72.31,146.54-2.69,21.93-3.31,61.97,22.69,83.83,12.03,10.11,28.62,15.24,49.32,15.24,3.23,0,6.5-.14,9.81-.38-15.21-1.24-27.69-5.82-37.11-13.75-24.1-20.26-23.52-57.38-21.03-77.7Z"/><path class="cls-3" d="M442.71,670.7c46.5-52.17,69.94-110.16,72.95-156.36-1.58-21.79-8.89-39.46-21.59-50.14-11.15-9.37-26.53-14.13-45.71-14.13-52.26,0-117.13,34.9-165.28,88.91-37.11,41.64-61.54,91.14-67.02,135.82-2.49,20.32-3.07,57.44,21.03,77.7,9.42,7.92,21.9,12.51,37.11,13.75,54.53-4.01,119.54-40.61,168.52-95.55Z"/><g><path class="cls-4" d="M142.23,508.02c12.35-19.58,26.38-38.61,42.08-56.74,36.7-42.39,78.99-76.46,123.14-100.31-64.31-149.8-134.41-214.57-134.41-214.57,69.97,36.83,125.01,114.69,166.77,199.07,36.62-15.34,73.9-23.56,109.82-23.56,1.03,0,2.05,.05,3.08,.06C360.83,49.74,40.68,5.09,0,0,116.54,94.69-7.93,399.87,142.23,508.02Z"/><path class="cls-4" d="M508.28,320.34c20.99,6.41,40.04,16.43,56.6,29.82,23.04-23.75,47.2-45.21,72.32-63.12,0,0-26.04,23.89-62.92,70.86,23.17,19.99,53.74,57.54,79.62,105.45,61.76-99.61,76.83-242.46,133.95-280.13-140.5,18.1-227.24,73.16-279.56,137.12Z"/></g><path class="cls-1" d="M555.94,368.7c-86.4-74.81-246.02-31.96-356.51,95.67-110.5,127.66-130.06,291.74-43.65,366.55,10.9,9.43,22.93,16.99,35.92,22.76,39.42,37.32,109.1,82.91,214.36,82.91,178.27,0,279.91-143.29,279.91-283.24,0-128.29-84.97-249.92-130.02-284.64ZM168.81,824.75c-5.33-4.63-10.23-9.6-14.7-14.93-63.71-75.84-39.99-219.63,58.81-333.76,103.67-119.76,251.52-162.38,333.96-97.57,1.63,1.3,3.23,2.63,4.83,4,81.37,70.44,61.61,226.56-44.12,348.68-105.73,122.13-257.41,164.01-338.79,93.57Z"/></g></g></svg>