<?xml version="1.0" encoding="UTF-8"?><svg id="Calque_2" xmlns="http://www.w3.org/2000/svg" viewBox="0 0 1162.46 900.57"><defs><style>.cls-1{fill:#5b8a30;}</style></defs><g id="Layer_1"><g><g><g><g><path class="cls-1" d="M766.43,13.4c-42.45-19.92-77.34,2.68-77.34,2.68,9.07-10.89,16.93-13.69,16.93-13.69-26,2.01-38.71,15.59-38.71,15.59,6.4-10.75,14.72-17.99,14.72-17.99-28.55,11.16-48.19,40.22-48.19,40.22,4.3-11.68,15.51-24.6,15.51-24.6-26.5,9.42-45.02,42.96-45.02,42.96,8.2-21.89,17.8-31.88,17.8-31.88-24.2,13.43-34.95,50.11-34.95,50.11,3.3-24.07,13.39-35.83,13.39-35.83-23.86,22.54-26.48,61.18-26.48,61.18-2.87-24.5,8.75-45.53,8.75-45.53-22.41,31.48-20.62,66.45-20.62,66.45-3.76-10.97-.52-25.44-.52-25.44-17.5,32.67-9.46,74.41-9.46,74.41-4.67-7.72-6.58-16.87-6.58-16.87-4.2,30.71,3.76,54.34,7.9,64.06,28.2-129.58,94.9-167.52,94.9-167.52-47.4,38.32-82.38,136.37-87.11,164.94,23.9-30.21,55.62-46.27,55.62-46.27-16.58-2.27-22.45,.23-24.26,1.49,14.79-13.01,38.24-22.47,38.24-22.47-16.1-1.54-33.87,4.81-33.87,4.81,19.96-17.97,53.95-31.69,53.95-31.69-17.55-3.84-31.77,.1-31.77,.1,20.28-18.17,55.47-23.05,55.47-23.05-8.51-1.47-33.8-5.78-33.8-5.78,12.74,1.36,47.87-16.48,47.87-16.48-15.82,1.24-28.41-5.36-28.41-5.36,22.2,1.27,52.24-15.2,52.24-15.2-20.16,3.62-32.17-5.05-32.17-5.05,18.36,1.88,47.08-9.87,47.08-9.87-15.11,.56-28.86-6.56-28.86-6.56,14.42-7.51,48.84-1.12,48.84-1.12-11.82-11.24-28.52-14.37-28.52-14.37,13.34-8.32,47.42-6.4,47.42-6.4Z"/><path class="cls-1" d="M873.33,265.68c-24.56-60.94-69.67-76.79-69.67-76.79,14.93-.29,23.63,5.3,23.63,5.3-24.13-24.84-43.98-25.91-43.98-25.91,12.5-2.89,24.44-.74,24.44-.74-32.23-19.42-68.08-13.98-68.08-13.98,11.26-5.86,29.37-5.74,29.37-5.74-29.31-18.84-67.05-8.32-67.05-8.32,21.21-10.84,36.03-9.79,36.03-9.79-29.86-12.97-62.76,8.26-62.76,8.26,18.3-17.78,34.69-17.77,34.69-17.77-35.38-4.61-62.41,26.65-62.41,26.65,13.15-24.47,36.81-31.06,36.81-31.06-39.83,4.72-60.63,37.29-60.63,37.29,3.71-13.49,15.82-22.88,15.82-22.88-36.28,10.8-55.91,55.7-55.91,55.7,.84-11.56,5.01-21.55,5.01-21.55-23.34,22.69-31.46,51.59-34.04,64.36,107.67-84.99,190.56-50.07,190.56-50.07-66.17-14.84-159.62,35.52-182.06,55.77,40.32-2.09,78.47,16.26,78.47,16.26-13.11-18.96-19.87-22.77-22.27-23.52,21.32,3.7,47.97,19.39,47.97,19.39-13.16-17.82-32.83-30.43-32.83-30.43,29.04,4.63,67.67,27.36,67.67,27.36-12.96-21.34-27.98-32.42-27.98-32.42,29.44,4.79,63.48,36.52,63.48,36.52-6.54-10-26-39.67-26-39.67,10.32,14.23,52.61,34.51,52.61,34.51-14.7-15.1-21.53-33.78-21.53-33.78,18.7,23.84,55.62,40.1,55.62,40.1-20.03-17.45-25.03-37.36-25.03-37.36,14.93,20.44,47.68,39.51,47.68,39.51-13.64-14.97-21.16-35.3-21.16-35.3,17.47,8.16,43.63,48.99,43.63,48.99-3.19-21.97-15.86-41.81-15.86-41.81,17.04,6.34,45.76,42.91,45.76,42.91Z"/><path class="cls-1" d="M740.42,504.5c14.8-56.96-5.28-102.23-5.28-102.23,9.36,11.57,11.99,21.86,11.99,21.86-2.69-34.33-14.43-50.6-14.43-50.6,9.14,8.05,15.46,18.76,15.46,18.76-10.36-37.34-35.18-62.18-35.18-62.18,9.83,5.23,20.97,19.55,20.97,19.55-8.84-34.69-37.32-57.87-37.32-57.87,18.43,9.98,27.07,22.29,27.07,22.29-12.07-31.49-42.83-44.26-42.83-44.26,20.05,3.41,30.17,16.31,30.17,16.31-19.59-30.67-51.66-32.62-51.66-32.62,20.15-4.77,38.01,9.77,38.01,9.77-26.93-28.41-55.78-24.65-55.78-24.65,8.92-5.41,21.03-1.69,21.03-1.69-27.72-21.86-61.93-9.57-61.93-9.57,6.2-6.48,13.69-9.37,13.69-9.37-25.57-4.34-44.8,7.12-52.67,12.98,108.3,32.18,142.33,118.95,142.33,118.95-33.58-61.21-116.07-103.6-139.88-108.74,25.93,30.42,40.48,71.76,40.48,71.76,1.22-22.02-1.08-29.69-2.2-32.05,11.35,19.05,20.1,49.71,20.1,49.71,.63-21.36-5.32-44.62-5.32-44.62,15.66,25.7,28.35,70.13,28.35,70.13,2.48-23.38-1.34-42.03-1.34-42.03,15.83,26.11,21.26,72.49,21.26,72.49,.88-11.32,3.44-44.95,3.44-44.95-.62,16.91,15.53,62.69,15.53,62.69-1.65-20.89,3.31-37.8,3.31-37.8-.17,29.43,14.64,68.52,14.64,68.52-3.79-26.53,2.9-42.76,2.9-42.76-.83,24.37,10.03,61.9,10.03,61.9-1.06-19.97,4.29-38.45,4.29-38.45,6.78,18.78,2.86,64.58,2.86,64.58,8.83-16.08,10.76-38.31,10.76-38.31,7.41,17.32,7.17,62.5,7.17,62.5Z"/></g><g><path class="cls-1" d="M338.92,13.4c42.45-19.92,77.34,2.68,77.34,2.68-9.07-10.89-16.93-13.69-16.93-13.69,26,2.01,38.71,15.59,38.71,15.59-6.4-10.75-14.72-17.99-14.72-17.99,28.55,11.16,48.19,40.22,48.19,40.22-4.3-11.68-15.51-24.6-15.51-24.6,26.5,9.42,45.02,42.96,45.02,42.96-8.2-21.89-17.8-31.88-17.8-31.88,24.2,13.43,34.95,50.11,34.95,50.11-3.3-24.07-13.39-35.83-13.39-35.83,23.86,22.54,26.48,61.18,26.48,61.18,2.87-24.5-8.75-45.53-8.75-45.53,22.41,31.48,20.62,66.45,20.62,66.45,3.76-10.97,.52-25.44,.52-25.44,17.5,32.67,9.46,74.41,9.46,74.41,4.67-7.72,6.58-16.87,6.58-16.87,4.2,30.71-3.76,54.34-7.9,64.06-28.2-129.58-94.9-167.52-94.9-167.52,47.4,38.32,82.38,136.37,87.11,164.94-23.9-30.21-55.62-46.27-55.62-46.27,16.58-2.27,22.45,.23,24.26,1.49-14.79-13.01-38.24-22.47-38.24-22.47,16.1-1.54,33.87,4.81,33.87,4.81-19.96-17.97-53.95-31.69-53.95-31.69,17.55-3.84,31.77,.1,31.77,.1-20.28-18.17-55.47-23.05-55.47-23.05,8.51-1.47,33.8-5.78,33.8-5.78-12.74,1.36-47.87-16.48-47.87-16.48,15.82,1.24,28.41-5.36,28.41-5.36-22.2,1.27-52.24-15.2-52.24-15.2,20.16,3.62,32.17-5.05,32.17-5.05-18.36,1.88-47.08-9.87-47.08-9.87,15.11,.56,28.86-6.56,28.86-6.56-14.42-7.51-48.84-1.12-48.84-1.12,11.82-11.24,28.52-14.37,28.52-14.37-13.34-8.32-47.42-6.4-47.42-6.4Z"/><path class="cls-1" d="M232.02,265.68c24.56-60.94,69.67-76.79,69.67-76.79-14.93-.29-23.63,5.3-23.63,5.3,24.13-24.84,43.98-25.91,43.98-25.91-12.5-2.89-24.44-.74-24.44-.74,32.23-19.42,68.08-13.98,68.08-13.98-11.26-5.86-29.37-5.74-29.37-5.74,29.31-18.84,67.05-8.32,67.05-8.32-21.21-10.84-36.03-9.79-36.03-9.79,29.86-12.97,62.76,8.26,62.76,8.26-18.3-17.78-34.69-17.77-34.69-17.77,35.38-4.61,62.41,26.65,62.41,26.65-13.15-24.47-36.81-31.06-36.81-31.06,39.83,4.72,60.63,37.29,60.63,37.29-3.71-13.49-15.82-22.88-15.82-22.88,36.28,10.8,55.91,55.7,55.91,55.7-.84-11.56-5.01-21.55-5.01-21.55,23.34,22.69,31.46,51.59,34.04,64.36-107.67-84.99-190.56-50.07-190.56-50.07,66.17-14.84,159.62,35.52,182.06,55.77-40.32-2.09-78.47,16.26-78.47,16.26,13.11-18.96,19.87-22.77,22.28-23.52-21.32,3.7-47.97,19.39-47.97,19.39,13.16-17.82,32.83-30.43,32.83-30.43-29.04,4.63-67.67,27.36-67.67,27.36,12.96-21.34,27.98-32.42,27.98-32.42-29.44,4.79-63.48,36.52-63.48,36.52,6.54-10,26-39.67,26-39.67-10.32,14.23-52.61,34.51-52.61,34.51,14.7-15.1,21.53-33.78,21.53-33.78-18.7,23.84-55.62,40.1-55.62,40.1,20.03-17.45,25.03-37.36,25.03-37.36-14.93,20.44-47.68,39.51-47.68,39.51,13.64-14.97,21.16-35.3,21.16-35.3-17.47,8.16-43.63,48.99-43.63,48.99,3.19-21.97,15.86-41.81,15.86-41.81-17.04,6.34-45.76,42.91-45.76,42.91Z"/><path class="cls-1" d="M364.93,504.5c-14.8-56.96,5.28-102.23,5.28-102.23-9.36,11.57-11.99,21.86-11.99,21.86,2.69-34.33,14.43-50.6,14.43-50.6-9.14,8.05-15.46,18.76-15.46,18.76,10.36-37.34,35.18-62.18,35.18-62.18-9.83,5.23-20.97,19.55-20.97,19.55,8.84-34.69,37.32-57.87,37.32-57.87-18.43,9.98-27.07,22.29-27.07,22.29,12.07-31.49,42.83-44.26,42.83-44.26-20.05,3.41-30.17,16.31-30.17,16.31,19.59-30.67,51.66-32.62,51.66-32.62-20.15-4.77-38.01,9.77-38.01,9.77,26.93-28.41,55.78-24.65,55.78-24.65-8.92-5.41-21.03-1.69-21.03-1.69,27.72-21.86,61.93-9.57,61.93-9.57-6.2-6.48-13.69-9.37-13.69-9.37,25.57-4.34,44.8,7.12,52.67,12.98-108.3,32.18-142.33,118.95-142.33,118.95,33.58-61.21,116.07-103.6,139.88-108.74-25.93,30.42-40.48,71.76-40.48,71.76-1.22-22.02,1.08-29.69,2.2-32.05-11.35,19.05-20.1,49.71-20.1,49.71-.63-21.36,5.32-44.62,5.32-44.62-15.66,25.7-28.35,70.13-28.35,70.13-2.48-23.38,1.34-42.03,1.34-42.03-15.83,26.11-21.26,72.49-21.26,72.49-.88-11.32-3.44-44.95-3.44-44.95,.62,16.91-15.53,62.69-15.53,62.69,1.65-20.89-3.31-37.8-3.31-37.8,.17,29.43-14.64,68.52-14.64,68.52,3.79-26.53-2.9-42.76-2.9-42.76,.83,24.37-10.03,61.9-10.03,61.9,1.06-19.97-4.29-38.45-4.29-38.45-6.78,18.78-2.86,64.58-2.86,64.58-8.83-16.08-10.76-38.31-10.76-38.31-7.41,17.32-7.17,62.5-7.17,62.5Z"/></g><path class="cls-1" d="M600.9,849.7h-91.19c-32.08-222.24,1.75-432.66,36.34-628.26h17.97c-26.98,171.43-35.87,437.74,36.88,628.26Z"/><ellipse class="cls-1" cx="529.53" cy="253.16" rx="25.08" ry="31.72"/><ellipse class="cls-1" cx="569.56" cy="265.68" rx="25.08" ry="31.72"/><ellipse class="cls-1" cx="575.82" cy="201.95" rx="25.08" ry="31.72"/><ellipse class="cls-1" cx="529.53" cy="206.05" rx="25.08" ry="31.72"/><ellipse class="cls-1" cx="544.48" cy="210.15" rx="25.08" ry="31.72"/><ellipse class="cls-1" cx="537.04" cy="182.18" rx="22.11" ry="27.96"/></g><g><g><path class="cls-1" d="M537.76,383.95c23.25-10.91,42.36,1.47,42.36,1.47-4.97-5.96-9.27-7.5-9.27-7.5,14.24,1.1,21.2,8.54,21.2,8.54-3.51-5.89-8.06-9.85-8.06-9.85,15.64,6.11,26.39,22.03,26.39,22.03-2.36-6.4-8.5-13.47-8.5-13.47,14.51,5.16,24.66,23.53,24.66,23.53-4.49-11.99-9.75-17.46-9.75-17.46,13.25,7.35,19.14,27.44,19.14,27.44-1.81-13.18-7.34-19.62-7.34-19.62,13.06,12.35,14.5,33.51,14.5,33.51,1.57-13.42-4.79-24.94-4.79-24.94,12.27,17.24,11.29,36.39,11.29,36.39,2.06-6.01,.28-13.93,.28-13.93,9.58,17.89,5.18,40.75,5.18,40.75,2.56-4.23,3.6-9.24,3.6-9.24,2.3,16.82-2.06,29.76-4.32,35.08-15.44-70.96-51.98-91.74-51.98-91.74,25.96,20.99,45.11,74.68,47.71,90.33-13.09-16.54-30.46-25.34-30.46-25.34,9.08-1.24,12.29,.13,13.29,.82-8.1-7.12-20.94-12.3-20.94-12.3,8.82-.84,18.55,2.63,18.55,2.63-10.93-9.84-29.54-17.35-29.54-17.35,9.61-2.1,17.4,.06,17.4,.06-11.1-9.95-30.38-12.62-30.38-12.62,4.66-.81,18.51-3.16,18.51-3.16-6.97,.75-26.22-9.03-26.22-9.03,8.67,.68,15.56-2.94,15.56-2.94-12.16,.7-28.61-8.32-28.61-8.32,11.04,1.98,17.62-2.77,17.62-2.77-10.06,1.03-25.78-5.4-25.78-5.4,8.27,.31,15.81-3.59,15.81-3.59-7.9-4.11-26.75-.61-26.75-.61,6.47-6.16,15.62-7.87,15.62-7.87-7.3-4.56-25.97-3.5-25.97-3.5Z"/><path class="cls-1" d="M479.22,522.1c13.45-33.38,38.16-42.06,38.16-42.06-8.18-.16-12.94,2.9-12.94,2.9,13.22-13.61,24.09-14.19,24.09-14.19-6.85-1.58-13.39-.41-13.39-.41,17.65-10.63,37.28-7.65,37.28-7.65-6.16-3.21-16.08-3.14-16.08-3.14,16.05-10.32,36.72-4.56,36.72-4.56-11.61-5.94-19.73-5.36-19.73-5.36,16.35-7.1,34.37,4.53,34.37,4.53-10.02-9.74-19-9.73-19-9.73,19.38-2.52,34.18,14.6,34.18,14.6-7.2-13.4-20.16-17.01-20.16-17.01,21.81,2.59,33.2,20.42,33.2,20.42-2.03-7.39-8.67-12.53-8.67-12.53,19.87,5.92,30.62,30.51,30.62,30.51-.46-6.33-2.74-11.8-2.74-11.8,12.78,12.43,17.23,28.25,18.64,35.25-58.97-46.55-104.36-27.42-104.36-27.42,36.24-8.13,87.42,19.45,99.71,30.54-22.08-1.14-42.98,8.9-42.98,8.9,7.18-10.38,10.88-12.47,12.2-12.88-11.67,2.03-26.27,10.62-26.27,10.62,7.21-9.76,17.98-16.67,17.98-16.67-15.9,2.54-37.06,14.99-37.06,14.99,7.1-11.69,15.32-17.75,15.32-17.75-16.12,2.62-34.77,20-34.77,20,3.58-5.48,14.24-21.72,14.24-21.72-5.65,7.79-28.81,18.9-28.81,18.9,8.05-8.27,11.79-18.5,11.79-18.5-10.24,13.06-30.46,21.96-30.46,21.96,10.97-9.55,13.71-20.46,13.71-20.46-8.18,11.2-26.11,21.64-26.11,21.64,7.47-8.2,11.59-19.33,11.59-19.33-9.57,4.47-23.89,26.83-23.89,26.83,1.75-12.03,8.69-22.9,8.69-22.9-9.33,3.47-25.06,23.5-25.06,23.5Z"/><path class="cls-1" d="M552.01,652.9c-8.1-31.19,2.89-55.99,2.89-55.99-5.13,6.33-6.57,11.97-6.57,11.97,1.47-18.8,7.9-27.71,7.9-27.71-5.01,4.41-8.47,10.28-8.47,10.28,5.67-20.45,19.27-34.05,19.27-34.05-5.39,2.87-11.48,10.71-11.48,10.71,4.84-19,20.44-31.7,20.44-31.7-10.09,5.47-14.83,12.21-14.83,12.21,6.61-17.25,23.46-24.24,23.46-24.24-10.98,1.87-16.52,8.93-16.52,8.93,10.73-16.8,28.29-17.87,28.29-17.87-11.04-2.61-20.82,5.35-20.82,5.35,14.75-15.56,30.55-13.5,30.55-13.5-4.89-2.97-11.52-.93-11.52-.93,15.18-11.97,33.92-5.24,33.92-5.24-3.4-3.55-7.5-5.13-7.5-5.13,14.01-2.38,24.53,3.9,28.85,7.11-59.31,17.63-77.95,65.14-77.95,65.14,18.39-33.52,63.56-56.74,76.61-59.55-14.2,16.66-22.17,39.3-22.17,39.3-.67-12.06,.59-16.26,1.2-17.55-6.21,10.43-11.01,27.22-11.01,27.22-.35-11.7,2.91-24.44,2.91-24.44-8.58,14.07-15.52,38.41-15.52,38.41-1.36-12.8,.74-23.02,.74-23.02-8.67,14.3-11.64,39.7-11.64,39.7-.48-6.2-1.88-24.62-1.88-24.62,.34,9.26-8.5,34.33-8.5,34.33,.91-11.44-1.81-20.7-1.81-20.7,.09,16.12-8.02,37.53-8.02,37.53,2.08-14.53-1.59-23.42-1.59-23.42,.45,13.35-5.49,33.9-5.49,33.9,.58-10.94-2.35-21.06-2.35-21.06-3.71,10.29-1.57,35.37-1.57,35.37-4.84-8.81-5.89-20.98-5.89-20.98-4.06,9.48-3.93,34.23-3.93,34.23Z"/></g><g><path class="cls-1" d="M771.89,383.95c-23.25-10.91-42.36,1.47-42.36,1.47,4.97-5.96,9.27-7.5,9.27-7.5-14.24,1.1-21.2,8.54-21.2,8.54,3.51-5.89,8.06-9.85,8.06-9.85-15.64,6.11-26.39,22.03-26.39,22.03,2.36-6.4,8.5-13.47,8.5-13.47-14.51,5.16-24.66,23.53-24.66,23.53,4.49-11.99,9.75-17.46,9.75-17.46-13.25,7.35-19.14,27.44-19.14,27.44,1.81-13.18,7.34-19.62,7.34-19.62-13.06,12.35-14.5,33.51-14.5,33.51-1.57-13.42,4.79-24.94,4.79-24.94-12.27,17.24-11.29,36.39-11.29,36.39-2.06-6.01-.28-13.93-.28-13.93-9.58,17.89-5.18,40.75-5.18,40.75-2.56-4.23-3.6-9.24-3.6-9.24-2.3,16.82,2.06,29.76,4.32,35.08,15.44-70.96,51.98-91.74,51.98-91.74-25.96,20.99-45.11,74.68-47.71,90.33,13.09-16.54,30.46-25.34,30.46-25.34-9.08-1.24-12.29,.13-13.29,.82,8.1-7.12,20.94-12.3,20.94-12.3-8.82-.84-18.55,2.63-18.55,2.63,10.93-9.84,29.54-17.35,29.54-17.35-9.61-2.1-17.4,.06-17.4,.06,11.1-9.95,30.38-12.62,30.38-12.62-4.66-.81-18.51-3.16-18.51-3.16,6.97,.75,26.22-9.03,26.22-9.03-8.67,.68-15.56-2.94-15.56-2.94,12.16,.7,28.61-8.32,28.61-8.32-11.04,1.98-17.62-2.77-17.62-2.77,10.06,1.03,25.78-5.4,25.78-5.4-8.27,.31-15.81-3.59-15.81-3.59,7.9-4.11,26.75-.61,26.75-.61-6.47-6.16-15.62-7.87-15.62-7.87,7.3-4.56,25.97-3.5,25.97-3.5Z"/><path class="cls-1" d="M830.43,522.1c-13.45-33.38-38.16-42.06-38.16-42.06,8.18-.16,12.94,2.9,12.94,2.9-13.22-13.61-24.09-14.19-24.09-14.19,6.85-1.58,13.39-.41,13.39-.41-17.65-10.63-37.28-7.65-37.28-7.65,6.16-3.21,16.08-3.14,16.08-3.14-16.05-10.32-36.72-4.56-36.72-4.56,11.61-5.94,19.73-5.36,19.73-5.36-16.35-7.1-34.37,4.53-34.37,4.53,10.02-9.74,19-9.73,19-9.73-19.38-2.52-34.18,14.6-34.18,14.6,7.2-13.4,20.16-17.01,20.16-17.01-21.81,2.59-33.2,20.42-33.2,20.42,2.03-7.39,8.67-12.53,8.67-12.53-19.87,5.92-30.62,30.51-30.62,30.51,.46-6.33,2.74-11.8,2.74-11.8-12.78,12.43-17.23,28.25-18.64,35.25,58.97-46.55,104.36-27.42,104.36-27.42-36.24-8.13-87.42,19.45-99.71,30.54,22.08-1.14,42.98,8.9,42.98,8.9-7.18-10.38-10.88-12.47-12.2-12.88,11.67,2.03,26.27,10.62,26.27,10.62-7.21-9.76-17.98-16.67-17.98-16.67,15.9,2.54,37.06,14.99,37.06,14.99-7.1-11.69-15.32-17.75-15.32-17.75,16.12,2.62,34.77,20,34.77,20-3.58-5.48-14.24-21.72-14.24-21.72,5.65,7.79,28.81,18.9,28.81,18.9-8.05-8.27-11.79-18.5-11.79-18.5,10.24,13.06,30.46,21.96,30.46,21.96-10.97-9.55-13.71-20.46-13.71-20.46,8.18,11.2,26.11,21.64,26.11,21.64-7.47-8.2-11.59-19.33-11.59-19.33,9.57,4.47,23.89,26.83,23.89,26.83-1.75-12.03-8.69-22.9-8.69-22.9,9.33,3.47,25.06,23.5,25.06,23.5Z"/><path class="cls-1" d="M757.64,652.9c8.1-31.19-2.89-55.99-2.89-55.99,5.13,6.33,6.57,11.97,6.57,11.97-1.47-18.8-7.9-27.71-7.9-27.71,5.01,4.41,8.47,10.28,8.47,10.28-5.67-20.45-19.27-34.05-19.27-34.05,5.39,2.87,11.48,10.71,11.48,10.71-4.84-19-20.44-31.7-20.44-31.7,10.09,5.47,14.83,12.21,14.83,12.21-6.61-17.25-23.46-24.24-23.46-24.24,10.98,1.87,16.52,8.93,16.52,8.93-10.73-16.8-28.29-17.87-28.29-17.87,11.04-2.61,20.82,5.35,20.82,5.35-14.75-15.56-30.55-13.5-30.55-13.5,4.89-2.97,11.52-.93,11.52-.93-15.18-11.97-33.91-5.24-33.91-5.24,3.4-3.55,7.5-5.13,7.5-5.13-14.01-2.38-24.54,3.9-28.85,7.11,59.31,17.63,77.95,65.14,77.95,65.14-18.39-33.52-63.56-56.74-76.61-59.55,14.2,16.66,22.17,39.3,22.17,39.3,.67-12.06-.59-16.26-1.2-17.55,6.21,10.43,11.01,27.22,11.01,27.22,.35-11.7-2.91-24.44-2.91-24.44,8.58,14.07,15.52,38.41,15.52,38.41,1.36-12.8-.74-23.02-.74-23.02,8.67,14.3,11.64,39.7,11.64,39.7,.48-6.2,1.89-24.62,1.89-24.62-.34,9.26,8.5,34.33,8.5,34.33-.91-11.44,1.81-20.7,1.81-20.7-.09,16.12,8.02,37.53,8.02,37.53-2.08-14.53,1.59-23.42,1.59-23.42-.45,13.35,5.49,33.9,5.49,33.9-.58-10.94,2.35-21.06,2.35-21.06,3.71,10.29,1.57,35.37,1.57,35.37,4.84-8.81,5.89-20.98,5.89-20.98,4.06,9.48,3.93,34.23,3.93,34.23Z"/></g><path class="cls-1" d="M628.41,841.95h49.94c17.57-121.71-.96-236.95-19.9-344.07h-9.84c14.77,93.89,19.65,239.74-20.2,344.07Z"/><ellipse class="cls-1" cx="667.5" cy="515.25" rx="13.74" ry="17.37"/><ellipse class="cls-1" cx="645.58" cy="522.1" rx="13.74" ry="17.37"/><ellipse class="cls-1" cx="642.15" cy="487.21" rx="13.74" ry="17.37"/><ellipse class="cls-1" cx="667.5" cy="489.45" rx="13.74" ry="17.37"/><ellipse class="cls-1" cx="659.32" cy="491.69" rx="13.74" ry="17.37"/><ellipse class="cls-1" cx="663.39" cy="476.38" rx="12.11" ry="15.31"/></g></g><path class="cls-1" d="M878.75,829.54c-10.73-1.86-21.41-3.55-32.13-5.15-84.45-12.79-168.86-19.47-253.31-20.06-9.08-.04-18.11-.04-27.19,.04-83.44,.72-166.83,7.39-250.27,20.01-10.73,1.6-21.41,3.29-32.13,5.15-94.58,16-189.13,39.69-283.71,71.02,107.46-17.78,214.88-30.66,322.31-38.59,13.6-.97,27.15-1.9,40.71-2.79,67.73-4.18,135.42-6.42,203.1-6.71,9.08-.04,18.11-.04,27.19,0,68.7,.21,137.4,2.45,206.14,6.71,13.55,.89,27.11,1.82,40.71,2.79,107.42,7.94,214.84,20.82,322.31,38.59-94.59-31.33-189.13-55.02-283.71-71.02Z"/></g></g></svg>