<?xml version="1.0" encoding="UTF-8"?><svg id="Calque_2" xmlns="http://www.w3.org/2000/svg" viewBox="0 0 1056.68 924"><defs><style>.cls-1{fill:#fff;}.cls-2{fill:#898b7b;}.cls-3{fill:#734f41;}.cls-4{fill:#e4e4da;}</style></defs><g id="Layer_1"><g><g><path class="cls-1" d="M784.64,77.32c-2.44-2.09-4.89-4.12-7.38-6.11-125.97-99.04-351.9-33.91-510.31,149.09-150.97,174.4-187.23,394.11-89.87,510,6.82,8.15,14.31,15.73,22.46,22.81,124.34,107.64,356.12,43.64,517.69-142.98,161.56-186.62,191.76-425.17,67.42-532.81Z"/><path class="cls-2" d="M271.74,523.99c8.37-68.27,45.7-143.91,102.41-207.54,73.57-82.54,172.7-135.87,252.55-135.87,29.31,0,52.82,7.26,69.85,21.59,19.4,16.31,30.57,43.32,32.99,76.62,3.25-49.87-9.06-90.76-35.64-113.1-18.38-15.46-43.74-23.29-75.37-23.29-86.15,0-193.11,57.54-272.49,146.59-61.19,68.65-101.47,150.27-110.5,223.93-4.11,33.5-5.07,94.69,34.67,128.1,18.38,15.46,43.74,23.29,75.36,23.29,4.93,0,9.93-.21,14.99-.58-23.24-1.9-42.31-8.9-56.7-21.01-36.82-30.96-35.94-87.68-32.13-118.73Z"/><path class="cls-4" d="M618.08,517.72c71.06-79.72,106.87-168.33,111.47-238.93-2.42-33.3-13.59-60.3-32.99-76.62-17.04-14.32-40.54-21.59-69.85-21.59-79.85,0-178.98,53.33-252.55,135.87-56.71,63.63-94.04,139.27-102.41,207.54-3.81,31.05-4.69,87.76,32.13,118.73,14.4,12.11,33.46,19.11,56.7,21.01,83.32-6.13,182.67-62.05,257.5-146.01Z"/></g><g><g><g><path class="cls-3" d="M667.44,150.29c-31.88-14.96-58.09,2.01-58.09,2.01,6.81-8.18,12.72-10.28,12.72-10.28-19.53,1.51-29.07,11.71-29.07,11.71,4.81-8.07,11.05-13.51,11.05-13.51-21.45,8.38-36.2,30.21-36.2,30.21,3.23-8.77,11.65-18.48,11.65-18.48-19.9,7.08-33.82,32.27-33.82,32.27,6.16-16.44,13.37-23.94,13.37-23.94-18.18,10.09-26.25,37.64-26.25,37.64,2.48-18.08,10.06-26.91,10.06-26.91-17.92,16.93-19.89,45.95-19.89,45.95-2.16-18.4,6.57-34.2,6.57-34.2-16.83,23.64-15.48,49.91-15.48,49.91-2.83-8.24-.39-19.11-.39-19.11-13.14,24.54-7.1,55.89-7.1,55.89-3.51-5.8-4.94-12.67-4.94-12.67-3.15,23.07,2.82,40.81,5.93,48.11,21.18-97.32,71.28-125.82,71.28-125.82-35.6,28.78-61.87,102.42-65.43,123.88,17.95-22.69,41.77-34.76,41.77-34.76-12.45-1.7-16.86,.18-18.22,1.12,11.11-9.77,28.72-16.88,28.72-16.88-12.09-1.15-25.44,3.61-25.44,3.61,14.99-13.5,40.52-23.8,40.52-23.8-13.18-2.89-23.86,.08-23.86,.08,15.23-13.64,41.66-17.31,41.66-17.31-6.39-1.1-25.39-4.34-25.39-4.34,9.57,1.02,35.96-12.38,35.96-12.38-11.88,.93-21.34-4.03-21.34-4.03,16.68,.95,39.23-11.42,39.23-11.42-15.14,2.72-24.16-3.79-24.16-3.79,13.79,1.41,35.36-7.41,35.36-7.41-11.35,.42-21.68-4.93-21.68-4.93,10.83-5.64,36.68-.84,36.68-.84-8.88-8.44-21.42-10.79-21.42-10.79,10.02-6.25,35.62-4.8,35.62-4.8Z"/><path class="cls-3" d="M747.73,339.76c-18.44-45.77-52.33-57.68-52.33-57.68,11.21-.22,17.75,3.98,17.75,3.98-18.13-18.66-33.03-19.46-33.03-19.46,9.39-2.17,18.36-.56,18.36-.56-24.2-14.58-51.13-10.5-51.13-10.5,8.45-4.4,22.06-4.31,22.06-4.31-22.01-14.15-50.36-6.25-50.36-6.25,15.93-8.14,27.06-7.35,27.06-7.35-22.42-9.74-47.14,6.21-47.14,6.21,13.74-13.35,26.06-13.35,26.06-13.35-26.57-3.46-46.88,20.02-46.88,20.02,9.88-18.38,27.65-23.33,27.65-23.33-29.92,3.55-45.53,28.01-45.53,28.01,2.79-10.13,11.88-17.19,11.88-17.19-27.25,8.11-42,41.84-42,41.84,.63-8.68,3.76-16.19,3.76-16.19-17.53,17.04-23.63,38.75-25.57,48.34,80.87-63.84,143.13-37.6,143.13-37.6-49.7-11.14-119.89,26.68-136.74,41.89,30.28-1.57,58.94,12.21,58.94,12.21-9.85-14.24-14.93-17.1-16.73-17.66,16.01,2.78,36.03,14.57,36.03,14.57-9.89-13.39-24.66-22.86-24.66-22.86,21.81,3.48,50.83,20.55,50.83,20.55-9.74-16.03-21.02-24.35-21.02-24.35,22.11,3.6,47.68,27.43,47.68,27.43-4.91-7.51-19.53-29.79-19.53-29.79,7.75,10.69,39.51,25.92,39.51,25.92-11.04-11.34-16.17-25.38-16.17-25.38,14.04,17.91,41.78,30.12,41.78,30.12-15.04-13.1-18.8-28.06-18.8-28.06,11.21,15.35,35.81,29.67,35.81,29.67-10.24-11.24-15.89-26.51-15.89-26.51,13.12,6.13,32.77,36.8,32.77,36.8-2.4-16.5-11.92-31.41-11.92-31.41,12.8,4.76,34.37,32.23,34.37,32.23Z"/><path class="cls-3" d="M647.9,519.14c11.11-42.78-3.97-76.78-3.97-76.78,7.03,8.69,9.01,16.42,9.01,16.42-2.02-25.78-10.84-38-10.84-38,6.87,6.05,11.61,14.09,11.61,14.09-7.78-28.05-26.42-46.7-26.42-46.7,7.39,3.93,15.75,14.68,15.75,14.68-6.64-26.05-28.03-43.47-28.03-43.47,13.84,7.5,20.33,16.74,20.33,16.74-9.06-23.65-32.17-33.24-32.17-33.24,15.06,2.56,22.66,12.25,22.66,12.25-14.71-23.04-38.8-24.5-38.8-24.5,15.14-3.58,28.55,7.34,28.55,7.34-20.22-21.34-41.9-18.51-41.9-18.51,6.7-4.07,15.79-1.27,15.79-1.27-20.82-16.42-46.51-7.19-46.51-7.19,4.66-4.87,10.28-7.04,10.28-7.04-19.21-3.26-33.65,5.35-39.56,9.75,81.34,24.17,106.9,89.34,106.9,89.34-25.22-45.97-87.17-77.81-105.06-81.67,19.48,22.85,30.4,53.9,30.4,53.9,.92-16.54-.81-22.3-1.65-24.07,8.52,14.31,15.1,37.34,15.1,37.34,.48-16.04-3.99-33.51-3.99-33.51,11.76,19.3,21.29,52.67,21.29,52.67,1.87-17.56-1.01-31.57-1.01-31.57,11.89,19.61,15.97,54.45,15.97,54.45,.66-8.5,2.59-33.76,2.59-33.76-.47,12.7,11.66,47.09,11.66,47.09-1.24-15.69,2.49-28.39,2.49-28.39-.13,22.1,11,51.46,11,51.46-2.85-19.93,2.18-32.12,2.18-32.12-.62,18.3,7.53,46.5,7.53,46.5-.8-15,3.22-28.88,3.22-28.88,5.09,14.11,2.15,48.5,2.15,48.5,6.63-12.08,8.08-28.77,8.08-28.77,5.57,13.01,5.38,46.94,5.38,46.94Z"/></g><g><path class="cls-3" d="M346.35,150.29c31.88-14.96,58.09,2.01,58.09,2.01-6.81-8.18-12.72-10.28-12.72-10.28,19.53,1.51,29.07,11.71,29.07,11.71-4.81-8.07-11.05-13.51-11.05-13.51,21.45,8.38,36.2,30.21,36.2,30.21-3.23-8.77-11.65-18.48-11.65-18.48,19.9,7.08,33.82,32.27,33.82,32.27-6.16-16.44-13.37-23.94-13.37-23.94,18.18,10.09,26.25,37.64,26.25,37.64-2.48-18.08-10.06-26.91-10.06-26.91,17.92,16.93,19.89,45.95,19.89,45.95,2.16-18.4-6.57-34.2-6.57-34.2,16.83,23.64,15.48,49.91,15.48,49.91,2.83-8.24,.39-19.11,.39-19.11,13.14,24.54,7.1,55.89,7.1,55.89,3.51-5.8,4.94-12.67,4.94-12.67,3.15,23.07-2.82,40.81-5.93,48.11-21.18-97.32-71.28-125.82-71.28-125.82,35.6,28.78,61.87,102.42,65.43,123.88-17.95-22.69-41.77-34.76-41.77-34.76,12.45-1.7,16.86,.18,18.22,1.12-11.11-9.77-28.72-16.88-28.72-16.88,12.09-1.15,25.44,3.61,25.44,3.61-14.99-13.5-40.52-23.8-40.52-23.8,13.18-2.89,23.86,.08,23.86,.08-15.23-13.64-41.66-17.31-41.66-17.31,6.39-1.1,25.39-4.34,25.39-4.34-9.57,1.02-35.96-12.38-35.96-12.38,11.88,.93,21.34-4.03,21.34-4.03-16.68,.95-39.23-11.42-39.23-11.42,15.14,2.72,24.16-3.79,24.16-3.79-13.79,1.41-35.36-7.41-35.36-7.41,11.35,.42,21.68-4.93,21.68-4.93-10.83-5.64-36.68-.84-36.68-.84,8.88-8.44,21.42-10.79,21.42-10.79-10.02-6.25-35.62-4.8-35.62-4.8Z"/><path class="cls-3" d="M266.06,339.76c18.44-45.77,52.33-57.68,52.33-57.68-11.21-.22-17.75,3.98-17.75,3.98,18.13-18.66,33.03-19.46,33.03-19.46-9.39-2.17-18.36-.56-18.36-.56,24.2-14.58,51.13-10.5,51.13-10.5-8.45-4.4-22.06-4.31-22.06-4.31,22.01-14.15,50.36-6.25,50.36-6.25-15.93-8.14-27.06-7.35-27.06-7.35,22.42-9.74,47.14,6.21,47.14,6.21-13.75-13.35-26.06-13.35-26.06-13.35,26.57-3.46,46.88,20.02,46.88,20.02-9.88-18.38-27.65-23.33-27.65-23.33,29.92,3.55,45.53,28.01,45.53,28.01-2.79-10.13-11.88-17.19-11.88-17.19,27.25,8.11,42,41.84,42,41.84-.63-8.68-3.76-16.19-3.76-16.19,17.53,17.04,23.63,38.75,25.57,48.34-80.87-63.84-143.13-37.6-143.13-37.6,49.7-11.14,119.89,26.68,136.74,41.89-30.28-1.57-58.94,12.21-58.94,12.21,9.85-14.24,14.93-17.1,16.73-17.66-16.01,2.78-36.03,14.57-36.03,14.57,9.89-13.39,24.66-22.86,24.66-22.86-21.81,3.48-50.83,20.55-50.83,20.55,9.74-16.03,21.02-24.35,21.02-24.35-22.11,3.6-47.68,27.43-47.68,27.43,4.91-7.51,19.53-29.79,19.53-29.79-7.75,10.69-39.51,25.92-39.51,25.92,11.04-11.34,16.17-25.38,16.17-25.38-14.04,17.91-41.78,30.12-41.78,30.12,15.04-13.1,18.8-28.06,18.8-28.06-11.21,15.35-35.81,29.67-35.81,29.67,10.24-11.24,15.89-26.51,15.89-26.51-13.12,6.13-32.77,36.8-32.77,36.8,2.4-16.5,11.92-31.41,11.92-31.41-12.8,4.76-34.37,32.23-34.37,32.23Z"/><path class="cls-3" d="M365.88,519.14c-11.11-42.78,3.97-76.78,3.97-76.78-7.03,8.69-9.01,16.42-9.01,16.42,2.02-25.78,10.84-38,10.84-38-6.87,6.05-11.61,14.09-11.61,14.09,7.78-28.05,26.42-46.7,26.42-46.7-7.39,3.93-15.75,14.68-15.75,14.68,6.64-26.05,28.03-43.47,28.03-43.47-13.84,7.5-20.33,16.74-20.33,16.74,9.06-23.65,32.17-33.24,32.17-33.24-15.06,2.56-22.66,12.25-22.66,12.25,14.71-23.04,38.8-24.5,38.8-24.5-15.14-3.58-28.55,7.34-28.55,7.34,20.22-21.34,41.9-18.51,41.9-18.51-6.7-4.07-15.79-1.27-15.79-1.27,20.82-16.42,46.51-7.19,46.51-7.19-4.66-4.87-10.28-7.04-10.28-7.04,19.21-3.26,33.65,5.35,39.56,9.75-81.34,24.17-106.9,89.34-106.9,89.34,25.22-45.97,87.17-77.81,105.06-81.67-19.48,22.85-30.4,53.9-30.4,53.9-.92-16.54,.81-22.3,1.65-24.07-8.52,14.31-15.1,37.34-15.1,37.34-.48-16.04,3.99-33.51,3.99-33.51-11.76,19.3-21.29,52.67-21.29,52.67-1.87-17.56,1.01-31.57,1.01-31.57-11.89,19.61-15.97,54.45-15.97,54.45-.66-8.5-2.59-33.76-2.59-33.76,.47,12.7-11.66,47.09-11.66,47.09,1.24-15.69-2.49-28.39-2.49-28.39,.13,22.1-11,51.46-11,51.46,2.85-19.93-2.18-32.12-2.18-32.12,.62,18.3-7.53,46.5-7.53,46.5,.8-15-3.22-28.88-3.22-28.88-5.09,14.11-2.15,48.5-2.15,48.5-6.63-12.08-8.08-28.77-8.08-28.77-5.57,13.01-5.38,46.94-5.38,46.94Z"/></g><path class="cls-3" d="M543.12,778.41h-68.49c-24.1-166.92,1.31-324.96,27.3-471.87h13.49c-20.26,128.76-26.94,328.78,27.7,471.87Z"/><ellipse class="cls-3" cx="489.5" cy="330.37" rx="18.84" ry="23.82"/><ellipse class="cls-3" cx="519.57" cy="339.76" rx="18.84" ry="23.82"/><ellipse class="cls-3" cx="524.28" cy="291.9" rx="18.84" ry="23.82"/><ellipse class="cls-3" cx="489.5" cy="294.98" rx="18.84" ry="23.82"/><ellipse class="cls-3" cx="500.73" cy="298.06" rx="18.84" ry="23.82"/><ellipse class="cls-3" cx="495.15" cy="277.05" rx="16.61" ry="21"/></g><g><g><path class="cls-3" d="M495.69,428.59c17.46-8.19,31.81,1.1,31.81,1.1-3.73-4.48-6.96-5.63-6.96-5.63,10.7,.83,15.92,6.41,15.92,6.41-2.63-4.42-6.05-7.4-6.05-7.4,11.74,4.59,19.82,16.55,19.82,16.55-1.77-4.81-6.38-10.12-6.38-10.12,10.9,3.88,18.52,17.67,18.52,17.67-3.37-9-7.32-13.11-7.32-13.11,9.96,5.52,14.38,20.61,14.38,20.61-1.36-9.9-5.51-14.74-5.51-14.74,9.81,9.27,10.89,25.17,10.89,25.17,1.18-10.08-3.6-18.73-3.6-18.73,9.22,12.95,8.48,27.33,8.48,27.33,1.55-4.51,.21-10.47,.21-10.47,7.2,13.44,3.89,30.61,3.89,30.61,1.92-3.18,2.71-6.94,2.71-6.94,1.73,12.63-1.54,22.35-3.25,26.35-11.6-53.3-39.04-68.91-39.04-68.91,19.5,15.76,33.88,56.09,35.83,67.84-9.83-12.43-22.88-19.03-22.88-19.03,6.82-.93,9.23,.1,9.98,.61-6.08-5.35-15.73-9.24-15.73-9.24,6.62-.63,13.93,1.98,13.93,1.98-8.21-7.39-22.19-13.03-22.19-13.03,7.22-1.58,13.07,.04,13.07,.04-8.34-7.47-22.82-9.48-22.82-9.48,3.5-.6,13.9-2.38,13.9-2.38-5.24,.56-19.69-6.78-19.69-6.78,6.51,.51,11.69-2.21,11.69-2.21-9.13,.52-21.49-6.25-21.49-6.25,8.29,1.49,13.23-2.08,13.23-2.08-7.55,.77-19.37-4.06-19.37-4.06,6.21,.23,11.87-2.7,11.87-2.7-5.93-3.09-20.09-.46-20.09-.46,4.86-4.62,11.73-5.91,11.73-5.91-5.49-3.42-19.51-2.63-19.51-2.63Z"/><path class="cls-3" d="M451.72,532.36c10.1-25.07,28.66-31.59,28.66-31.59-6.14-.12-9.72,2.18-9.72,2.18,9.93-10.22,18.09-10.66,18.09-10.66-5.14-1.19-10.05-.31-10.05-.31,13.26-7.99,28-5.75,28-5.75-4.63-2.41-12.08-2.36-12.08-2.36,12.06-7.75,27.58-3.42,27.58-3.42-8.72-4.46-14.82-4.03-14.82-4.03,12.28-5.33,25.82,3.4,25.82,3.4-7.53-7.31-14.27-7.31-14.27-7.31,14.55-1.9,25.67,10.96,25.67,10.96-5.41-10.06-15.14-12.77-15.14-12.77,16.38,1.94,24.94,15.34,24.94,15.34-1.53-5.55-6.51-9.41-6.51-9.41,14.92,4.44,23,22.91,23,22.91-.34-4.76-2.06-8.87-2.06-8.87,9.6,9.33,12.94,21.22,14,26.47-44.29-34.96-78.38-20.59-78.38-20.59,27.22-6.1,65.66,14.61,74.89,22.94-16.59-.86-32.28,6.69-32.28,6.69,5.39-7.8,8.17-9.36,9.16-9.67-8.77,1.52-19.73,7.98-19.73,7.98,5.41-7.33,13.51-12.52,13.51-12.52-11.94,1.91-27.84,11.26-27.84,11.26,5.33-8.78,11.51-13.33,11.51-13.33-12.11,1.97-26.11,15.02-26.11,15.02,2.69-4.11,10.7-16.32,10.7-16.32-4.24,5.85-21.64,14.2-21.64,14.2,6.05-6.21,8.86-13.9,8.86-13.9-7.69,9.81-22.88,16.5-22.88,16.5,8.24-7.18,10.3-15.37,10.3-15.37-6.14,8.41-19.61,16.25-19.61,16.25,5.61-6.16,8.7-14.52,8.7-14.52-7.19,3.36-17.95,20.15-17.95,20.15,1.31-9.04,6.53-17.2,6.53-17.2-7.01,2.61-18.82,17.65-18.82,17.65Z"/><path class="cls-3" d="M506.39,630.6c-6.09-23.43,2.17-42.05,2.17-42.05-3.85,4.76-4.93,8.99-4.93,8.99,1.11-14.12,5.93-20.81,5.93-20.81-3.76,3.31-6.36,7.72-6.36,7.72,4.26-15.36,14.47-25.58,14.47-25.58-4.05,2.15-8.62,8.04-8.62,8.04,3.64-14.27,15.35-23.81,15.35-23.81-7.58,4.11-11.14,9.17-11.14,9.17,4.96-12.95,17.62-18.21,17.62-18.21-8.25,1.4-12.41,6.71-12.41,6.71,8.06-12.62,21.25-13.42,21.25-13.42-8.29-1.96-15.64,4.02-15.64,4.02,11.08-11.69,22.95-10.14,22.95-10.14-3.67-2.23-8.65-.7-8.65-.7,11.4-8.99,25.47-3.94,25.47-3.94-2.55-2.67-5.63-3.86-5.63-3.86,10.52-1.79,18.43,2.93,21.67,5.34-44.55,13.24-58.55,48.93-58.55,48.93,13.81-25.18,47.74-42.62,57.54-44.73-10.67,12.51-16.65,29.52-16.65,29.52-.5-9.06,.44-12.21,.9-13.18-4.67,7.84-8.27,20.45-8.27,20.45-.26-8.79,2.19-18.35,2.19-18.35-6.44,10.57-11.66,28.85-11.66,28.85-1.02-9.62,.55-17.29,.55-17.29-6.51,10.74-8.74,29.82-8.74,29.82-.36-4.65-1.42-18.49-1.42-18.49,.26,6.95-6.39,25.79-6.39,25.79,.68-8.59-1.36-15.55-1.36-15.55,.07,12.11-6.02,28.18-6.02,28.18,1.56-10.91-1.19-17.59-1.19-17.59,.34,10.02-4.12,25.46-4.12,25.46,.44-8.21-1.76-15.82-1.76-15.82-2.79,7.73-1.18,26.56-1.18,26.56-3.63-6.62-4.43-15.76-4.43-15.76-3.05,7.12-2.95,25.71-2.95,25.71Z"/></g><g><path class="cls-3" d="M671.54,428.59c-17.46-8.19-31.81,1.1-31.81,1.1,3.73-4.48,6.96-5.63,6.96-5.63-10.7,.83-15.92,6.41-15.92,6.41,2.63-4.42,6.05-7.4,6.05-7.4-11.74,4.59-19.82,16.55-19.82,16.55,1.77-4.81,6.38-10.12,6.38-10.12-10.9,3.88-18.52,17.67-18.52,17.67,3.37-9,7.32-13.11,7.32-13.11-9.96,5.52-14.38,20.61-14.38,20.61,1.36-9.9,5.51-14.74,5.51-14.74-9.81,9.27-10.89,25.17-10.89,25.17-1.18-10.08,3.6-18.73,3.6-18.73-9.22,12.95-8.48,27.33-8.48,27.33-1.55-4.51-.21-10.47-.21-10.47-7.2,13.44-3.89,30.61-3.89,30.61-1.92-3.18-2.71-6.94-2.71-6.94-1.73,12.63,1.54,22.35,3.25,26.35,11.6-53.3,39.04-68.91,39.04-68.91-19.5,15.76-33.88,56.09-35.83,67.84,9.83-12.43,22.88-19.03,22.88-19.03-6.82-.93-9.23,.1-9.98,.61,6.08-5.35,15.73-9.24,15.73-9.24-6.62-.63-13.93,1.98-13.93,1.98,8.21-7.39,22.19-13.03,22.19-13.03-7.22-1.58-13.07,.04-13.07,.04,8.34-7.47,22.82-9.48,22.82-9.48-3.5-.6-13.9-2.38-13.9-2.38,5.24,.56,19.69-6.78,19.69-6.78-6.51,.51-11.69-2.21-11.69-2.21,9.13,.52,21.49-6.25,21.49-6.25-8.29,1.49-13.23-2.08-13.23-2.08,7.55,.77,19.37-4.06,19.37-4.06-6.21,.23-11.87-2.7-11.87-2.7,5.93-3.09,20.09-.46,20.09-.46-4.86-4.62-11.73-5.91-11.73-5.91,5.49-3.42,19.51-2.63,19.51-2.63Z"/><path class="cls-3" d="M715.51,532.36c-10.1-25.07-28.66-31.59-28.66-31.59,6.14-.12,9.72,2.18,9.72,2.18-9.93-10.22-18.09-10.66-18.09-10.66,5.14-1.19,10.05-.31,10.05-.31-13.26-7.99-28-5.75-28-5.75,4.63-2.41,12.08-2.36,12.08-2.36-12.06-7.75-27.58-3.42-27.58-3.42,8.72-4.46,14.82-4.03,14.82-4.03-12.28-5.33-25.82,3.4-25.82,3.4,7.53-7.31,14.27-7.31,14.27-7.31-14.55-1.9-25.67,10.96-25.67,10.96,5.41-10.06,15.14-12.77,15.14-12.77-16.38,1.94-24.94,15.34-24.94,15.34,1.53-5.55,6.51-9.41,6.51-9.41-14.92,4.44-23,22.91-23,22.91,.34-4.76,2.06-8.87,2.06-8.87-9.6,9.33-12.94,21.22-14,26.47,44.29-34.96,78.38-20.59,78.38-20.59-27.22-6.1-65.66,14.61-74.89,22.94,16.59-.86,32.28,6.69,32.28,6.69-5.39-7.8-8.17-9.36-9.16-9.67,8.77,1.52,19.73,7.98,19.73,7.98-5.41-7.33-13.51-12.52-13.51-12.52,11.94,1.91,27.84,11.26,27.84,11.26-5.33-8.78-11.51-13.33-11.51-13.33,12.11,1.97,26.11,15.02,26.11,15.02-2.69-4.11-10.7-16.32-10.7-16.32,4.24,5.85,21.64,14.2,21.64,14.2-6.04-6.21-8.86-13.9-8.86-13.9,7.69,9.81,22.88,16.5,22.88,16.5-8.24-7.18-10.3-15.37-10.3-15.37,6.14,8.41,19.61,16.25,19.61,16.25-5.61-6.16-8.7-14.52-8.7-14.52,7.19,3.36,17.95,20.15,17.95,20.15-1.31-9.04-6.53-17.2-6.53-17.2,7.01,2.61,18.82,17.65,18.82,17.65Z"/><path class="cls-3" d="M660.84,630.6c6.09-23.43-2.17-42.05-2.17-42.05,3.85,4.76,4.93,8.99,4.93,8.99-1.11-14.12-5.93-20.81-5.93-20.81,3.76,3.31,6.36,7.72,6.36,7.72-4.26-15.36-14.47-25.58-14.47-25.58,4.05,2.15,8.62,8.04,8.62,8.04-3.64-14.27-15.35-23.81-15.35-23.81,7.58,4.11,11.14,9.17,11.14,9.17-4.96-12.95-17.62-18.21-17.62-18.21,8.25,1.4,12.41,6.71,12.41,6.71-8.06-12.62-21.25-13.42-21.25-13.42,8.29-1.96,15.64,4.02,15.64,4.02-11.08-11.69-22.95-10.14-22.95-10.14,3.67-2.23,8.65-.7,8.65-.7-11.4-8.99-25.47-3.94-25.47-3.94,2.55-2.67,5.63-3.86,5.63-3.86-10.52-1.79-18.43,2.93-21.67,5.34,44.55,13.24,58.55,48.93,58.55,48.93-13.81-25.18-47.74-42.62-57.54-44.73,10.67,12.51,16.65,29.52,16.65,29.52,.5-9.06-.44-12.21-.9-13.18,4.67,7.84,8.27,20.45,8.27,20.45,.26-8.79-2.19-18.35-2.19-18.35,6.44,10.57,11.66,28.85,11.66,28.85,1.02-9.62-.55-17.29-.55-17.29,6.51,10.74,8.74,29.82,8.74,29.82,.36-4.65,1.42-18.49,1.42-18.49-.26,6.95,6.39,25.79,6.39,25.79-.68-8.59,1.36-15.55,1.36-15.55-.07,12.11,6.02,28.18,6.02,28.18-1.56-10.91,1.19-17.59,1.19-17.59-.34,10.02,4.12,25.46,4.12,25.46-.44-8.21,1.76-15.82,1.76-15.82,2.79,7.73,1.18,26.56,1.18,26.56,3.63-6.62,4.43-15.76,4.43-15.76,3.05,7.12,2.95,25.71,2.95,25.71Z"/></g><path class="cls-3" d="M563.78,772.59h37.51c13.2-91.41-.72-177.97-14.95-258.43h-7.39c11.1,70.52,14.76,180.06-15.17,258.43Z"/><ellipse class="cls-3" cx="593.14" cy="527.22" rx="10.32" ry="13.05"/><ellipse class="cls-3" cx="576.67" cy="532.36" rx="10.32" ry="13.05"/><ellipse class="cls-3" cx="574.09" cy="506.15" rx="10.32" ry="13.05"/><ellipse class="cls-3" cx="593.14" cy="507.84" rx="10.32" ry="13.05"/><ellipse class="cls-3" cx="586.99" cy="509.52" rx="10.32" ry="13.05"/><ellipse class="cls-3" cx="590.04" cy="498.02" rx="9.09" ry="11.5"/></g></g><g><path class="cls-3" d="M190.82,744.94c-4.81-4.69-9.46-9.52-13.75-14.64-97.36-115.89-61.1-335.6,89.87-510C425.36,37.3,651.28-27.82,777.26,71.21c2.49,1.99,4.94,4.02,7.38,6.11,124.34,107.64,94.15,346.2-67.42,532.81-34.27,39.59-71.72,73.59-110.62,101.68,55.99,2.71,112.13,8.25,167.67,16.67,10.77,1.61,20.56,3.18,29.86,4.79,33.63,5.69,67.48,12.52,101.39,20.39,55.14-76.32,84.28-169.87,84.28-262.47,0-196.04-129.84-381.89-198.68-434.95C659.07-58.07,415.17,7.41,246.33,202.43,83.3,390.77,49.86,630.97,166.59,750.2c8.08-1.8,16.16-3.58,24.23-5.26Z"/><path class="cls-3" d="M761.39,824.85c-12.22-.87-24.48-1.71-36.73-2.51-61.51-3.82-123.93-5.85-185.44-6.04-4.12-.02-8.19-.03-12.26-.03s-8.14,0-12.23,.03c-60.68,.27-122.19,2.3-182.82,6.04-12.15,.8-24.41,1.63-36.7,2.51-8.68,.64-17.38,1.36-26.08,2.08,63.24,48.98,159.31,97.06,292.95,97.06,110.43,0,201.61-35.99,271.01-93.02-23.96-2.32-47.87-4.37-71.69-6.13Z"/></g><path class="cls-3" d="M798.79,764.13c-9.75-1.69-19.46-3.22-29.21-4.68-76.77-11.63-153.49-17.69-230.26-18.23-8.25-.04-16.47-.04-24.72,.04-75.84,.65-151.65,6.72-227.49,18.19-9.75,1.46-19.46,2.99-29.21,4.68-85.98,14.55-171.92,36.08-257.89,64.56,97.68-16.16,195.33-27.87,292.98-35.08,12.36-.88,24.68-1.73,37-2.53,61.57-3.8,123.09-5.83,184.62-6.1,8.25-.04,16.47-.04,24.72,0,62.45,.19,124.9,2.23,187.38,6.1,12.32,.81,24.64,1.65,37,2.53,97.65,7.22,195.29,18.92,292.98,35.08-85.98-28.48-171.92-50.01-257.89-64.56Z"/></g></g></svg>